<ttFont>
<head>
    <!-- Most of this table will be recalculated by the compiler -->
    <tableVersion value="1.0"/>
    <fontRevision value="2.0"/>
    <checkSumAdjustment value="0x9cdd1236"/>
    <magicNumber value="0x5f0f3cf5"/>
    <flags value="00000000 00000011"/>
    <unitsPerEm value="1000"/>
    <created value="Wed Mar 16 02:50:39 2016"/>
    <modified value="Tue Jul  2 10:34:33 2019"/>
    <xMin value="-115"/>
    <yMin value="-211"/>
    <xMax value="872"/>
    <yMax value="933"/>
    <macStyle value="00000000 00000000"/>
    <lowestRecPPEM value="6"/>
    <fontDirectionHint value="2"/>
    <indexToLocFormat value="0"/>
    <glyphDataFormat value="0"/>
  </head>
    <TTGlyph name=".notdef" xMin="94" yMin="0" xMax="505" yMax="714">
      <contour>
        <pt x="94" y="0" on="1"/>
        <pt x="94" y="714" on="1"/>
        <pt x="505" y="714" on="1"/>
        <pt x="505" y="0" on="1"/>
      </contour>
      <contour>
        <pt x="145" y="51" on="1"/>
        <pt x="454" y="51" on="1"/>
        <pt x="454" y="663" on="1"/>
        <pt x="145" y="663" on="1"/>
      </contour>
    </TTGlyph>
    <TTGlyph name="A" xMin="11" yMin="0" xMax="500" yMax="717">
      <contour>
        <pt x="89" y="0" on="1"/>
        <pt x="11" y="0" on="1"/>
        <pt x="11" y="3" on="1"/>
        <pt x="224" y="716" on="1"/>
        <pt x="224" y="717" on="1"/>
        <pt x="286" y="717" on="1"/>
        <pt x="286" y="716" on="1"/>
        <pt x="500" y="3" on="1"/>
        <pt x="500" y="0" on="1"/>
        <pt x="417" y="0" on="1"/>
        <pt x="417" y="1" on="1"/>
        <pt x="364" y="196" on="1"/>
        <pt x="144" y="196" on="1"/>
        <pt x="89" y="1" on="1"/>
      </contour>
      <contour>
        <pt x="256" y="592" on="1"/>
        <pt x="162" y="260" on="1"/>
        <pt x="346" y="260" on="1"/>
      </contour>
    </TTGlyph>
    <TTGlyph name="B" xMin="101" yMin="0" xMax="501" yMax="714">
      <contour>
        <pt x="324" y="714" on="1"/>
        <pt x="366" y="714" on="0"/>
        <pt x="424" y="700" on="0"/>
        <pt x="444" y="686" on="1"/>
        <pt x="470" y="669" on="0"/>
        <pt x="489" y="614" on="0"/>
        <pt x="489" y="578" on="1"/>
        <pt x="489" y="508" on="1"/>
        <pt x="489" y="468" on="0"/>
        <pt x="470" y="406" on="0"/>
        <pt x="444" y="383" on="1"/>
        <pt x="444" y="382" on="1"/>
        <pt x="429" y="368" on="1"/>
        <pt x="466" y="348" on="0"/>
        <pt x="501" y="275" on="0"/>
        <pt x="501" y="230" on="1"/>
        <pt x="501" y="153" on="1"/>
        <pt x="501" y="82" on="0"/>
        <pt x="411" y="0" on="0"/>
        <pt x="327" y="0" on="1"/>
        <pt x="101" y="0" on="1"/>
        <pt x="101" y="714" on="1"/>
      </contour>
      <contour>
        <pt x="429" y="252" on="1"/>
        <pt x="429" y="277" on="0"/>
        <pt x="417" y="307" on="0"/>
        <pt x="393" y="324" on="0"/>
        <pt x="356" y="330" on="0"/>
        <pt x="331" y="330" on="1"/>
        <pt x="173" y="330" on="1"/>
        <pt x="173" y="73" on="1"/>
        <pt x="316" y="73" on="1"/>
        <pt x="343" y="73" on="0"/>
        <pt x="385" y="79" on="0"/>
        <pt x="414" y="96" on="0"/>
        <pt x="429" y="127" on="0"/>
        <pt x="429" y="153" on="1"/>
      </contour>
      <contour>
        <pt x="173" y="642" on="1"/>
        <pt x="173" y="398" on="1"/>
        <pt x="320" y="398" on="1"/>
        <pt x="352" y="398" on="0"/>
        <pt x="391" y="411" on="0"/>
        <pt x="412" y="438" on="0"/>
        <pt x="418" y="480" on="0"/>
        <pt x="418" y="508" on="1"/>
        <pt x="418" y="572" on="1"/>
        <pt x="418" y="616" on="0"/>
        <pt x="379" y="642" on="0"/>
        <pt x="336" y="642" on="1"/>
      </contour>
    </TTGlyph>
    <TTGlyph name="C" xMin="74" yMin="-10" xMax="469" yMax="724">
      <contour>
        <pt x="74" y="572" on="1"/>
        <pt x="74" y="606" on="0"/>
        <pt x="102" y="662" on="0"/>
        <pt x="153" y="702" on="0"/>
        <pt x="225" y="724" on="0"/>
        <pt x="270" y="724" on="1"/>
        <pt x="279" y="724" on="1"/>
        <pt x="370" y="724" on="0"/>
        <pt x="469" y="640" on="0"/>
        <pt x="469" y="572" on="1"/>
        <pt x="469" y="520" on="1"/>
        <pt x="398" y="520" on="1"/>
        <pt x="398" y="564" on="1"/>
        <pt x="398" y="614" on="0"/>
        <pt x="344" y="652" on="0"/>
        <pt x="274" y="652" on="1"/>
        <pt x="202" y="652" on="0"/>
        <pt x="146" y="605" on="0"/>
        <pt x="146" y="560" on="1"/>
        <pt x="146" y="159" on="1"/>
        <pt x="146" y="110" on="0"/>
        <pt x="202" y="62" on="0"/>
        <pt x="274" y="62" on="1"/>
        <pt x="344" y="62" on="0"/>
        <pt x="398" y="104" on="0"/>
        <pt x="398" y="155" on="1"/>
        <pt x="398" y="205" on="1"/>
        <pt x="469" y="205" on="1"/>
        <pt x="469" y="145" on="1"/>
        <pt x="469" y="69" on="0"/>
        <pt x="365" y="-10" on="0"/>
        <pt x="279" y="-10" on="1"/>
        <pt x="270" y="-10" on="1"/>
        <pt x="182" y="-9" on="0"/>
        <pt x="74" y="73" on="0"/>
        <pt x="74" y="145" on="1"/>
      </contour>
    </TTGlyph>
    <TTGlyph name="D" xMin="101" yMin="0" xMax="497" yMax="714">
      <contour>
        <pt x="101" y="0" on="1"/>
        <pt x="101" y="714" on="1"/>
        <pt x="327" y="714" on="1"/>
        <pt x="411" y="714" on="0"/>
        <pt x="497" y="634" on="0"/>
        <pt x="497" y="566" on="1"/>
        <pt x="497" y="153" on="1"/>
        <pt x="497" y="85" on="0"/>
        <pt x="403" y="0" on="0"/>
        <pt x="315" y="0" on="1"/>
      </contour>
      <contour>
        <pt x="173" y="642" on="1"/>
        <pt x="173" y="72" on="1"/>
        <pt x="315" y="72" on="1"/>
        <pt x="366" y="72" on="0"/>
        <pt x="425" y="113" on="0"/>
        <pt x="425" y="160" on="1"/>
        <pt x="425" y="554" on="1"/>
        <pt x="425" y="604" on="0"/>
        <pt x="382" y="642" on="0"/>
        <pt x="327" y="642" on="1"/>
      </contour>
    </TTGlyph>
    <TTGlyph name="E" xMin="101" yMin="0" xMax="466" yMax="714">
      <contour>
        <pt x="466" y="714" on="1"/>
        <pt x="466" y="642" on="1"/>
        <pt x="173" y="642" on="1"/>
        <pt x="173" y="385" on="1"/>
        <pt x="422" y="385" on="1"/>
        <pt x="422" y="313" on="1"/>
        <pt x="173" y="313" on="1"/>
        <pt x="173" y="73" on="1"/>
        <pt x="466" y="73" on="1"/>
        <pt x="466" y="0" on="1"/>
        <pt x="101" y="0" on="1"/>
        <pt x="101" y="714" on="1"/>
      </contour>
    </TTGlyph>
    <TTGlyph name="F" xMin="101" yMin="0" xMax="466" yMax="714">
      <contour>
        <pt x="173" y="0" on="1"/>
        <pt x="101" y="0" on="1"/>
        <pt x="101" y="714" on="1"/>
        <pt x="466" y="714" on="1"/>
        <pt x="466" y="642" on="1"/>
        <pt x="173" y="642" on="1"/>
        <pt x="173" y="381" on="1"/>
        <pt x="422" y="381" on="1"/>
        <pt x="422" y="308" on="1"/>
        <pt x="173" y="308" on="1"/>
      </contour>
    </TTGlyph>
    <TTGlyph name="G" xMin="74" yMin="-10" xMax="464" yMax="724">
      <contour>
        <pt x="265" y="-10" on="1"/>
        <pt x="221" y="-10" on="0"/>
        <pt x="151" y="13" on="0"/>
        <pt x="101" y="54" on="0"/>
        <pt x="75" y="111" on="0"/>
        <pt x="75" y="145" on="1"/>
        <pt x="75" y="572" on="1"/>
        <pt x="74" y="606" on="0"/>
        <pt x="101" y="662" on="0"/>
        <pt x="150" y="702" on="0"/>
        <pt x="221" y="724" on="0"/>
        <pt x="265" y="724" on="1"/>
        <pt x="274" y="724" on="1"/>
        <pt x="365" y="724" on="0"/>
        <pt x="464" y="640" on="0"/>
        <pt x="464" y="572" on="1"/>
        <pt x="464" y="520" on="1"/>
        <pt x="393" y="520" on="1"/>
        <pt x="393" y="564" on="1"/>
        <pt x="393" y="613" on="0"/>
        <pt x="339" y="652" on="0"/>
        <pt x="269" y="652" on="1"/>
        <pt x="233" y="652" on="0"/>
        <pt x="186" y="642" on="0"/>
        <pt x="158" y="619" on="0"/>
        <pt x="147" y="584" on="0"/>
        <pt x="147" y="560" on="1"/>
        <pt x="147" y="159" on="1"/>
        <pt x="147" y="110" on="0"/>
        <pt x="198" y="62" on="0"/>
        <pt x="269" y="62" on="1"/>
        <pt x="339" y="62" on="0"/>
        <pt x="393" y="104" on="0"/>
        <pt x="393" y="155" on="1"/>
        <pt x="393" y="307" on="1"/>
        <pt x="261" y="307" on="1"/>
        <pt x="261" y="371" on="1"/>
        <pt x="464" y="371" on="1"/>
        <pt x="464" y="145" on="1"/>
        <pt x="464" y="68" on="0"/>
        <pt x="360" y="-10" on="0"/>
        <pt x="274" y="-10" on="1"/>
      </contour>
    </TTGlyph>
    <TTGlyph name="H" xMin="101" yMin="0" xMax="495" yMax="714">
      <contour>
        <pt x="422" y="714" on="1"/>
        <pt x="495" y="714" on="1"/>
        <pt x="495" y="0" on="1"/>
        <pt x="422" y="0" on="1"/>
        <pt x="422" y="312" on="1"/>
        <pt x="174" y="312" on="1"/>
        <pt x="174" y="0" on="1"/>
        <pt x="101" y="0" on="1"/>
        <pt x="101" y="714" on="1"/>
        <pt x="174" y="714" on="1"/>
        <pt x="174" y="385" on="1"/>
        <pt x="422" y="385" on="1"/>
      </contour>
    </TTGlyph>
    <TTGlyph name="I" xMin="101" yMin="0" xMax="172" yMax="714">
      <contour>
        <pt x="101" y="0" on="1"/>
        <pt x="101" y="714" on="1"/>
        <pt x="172" y="714" on="1"/>
        <pt x="172" y="0" on="1"/>
      </contour>
    </TTGlyph>
    <TTGlyph name="J" xMin="21" yMin="-10" xMax="339" yMax="714">
      <contour>
        <pt x="21" y="170" on="1"/>
        <pt x="93" y="170" on="1"/>
        <pt x="93" y="135" on="1"/>
        <pt x="94" y="109" on="0"/>
        <pt x="101" y="80" on="0"/>
        <pt x="120" y="66" on="0"/>
        <pt x="154" y="62" on="0"/>
        <pt x="181" y="62" on="1"/>
        <pt x="205" y="62" on="0"/>
        <pt x="238" y="67" on="0"/>
        <pt x="258" y="82" on="0"/>
        <pt x="267" y="111" on="0"/>
        <pt x="267" y="135" on="1"/>
        <pt x="267" y="714" on="1"/>
        <pt x="339" y="714" on="1"/>
        <pt x="339" y="124" on="1"/>
        <pt x="339" y="55" on="0"/>
        <pt x="259" y="-10" on="0"/>
        <pt x="183" y="-10" on="1"/>
        <pt x="177" y="-10" on="1"/>
        <pt x="102" y="-10" on="0"/>
        <pt x="21" y="55" on="0"/>
        <pt x="21" y="124" on="1"/>
      </contour>
    </TTGlyph>
    <TTGlyph name="K" xMin="101" yMin="0" xMax="527" yMax="714">
      <contour>
        <pt x="173" y="0" on="1"/>
        <pt x="101" y="0" on="1"/>
        <pt x="101" y="714" on="1"/>
        <pt x="173" y="714" on="1"/>
        <pt x="173" y="332" on="1"/>
        <pt x="189" y="356" on="0"/>
        <pt x="227" y="414" on="0"/>
        <pt x="268" y="477" on="0"/>
        <pt x="309" y="541" on="0"/>
        <pt x="329" y="571" on="1"/>
        <pt x="375" y="641" on="0"/>
        <pt x="423" y="713" on="1"/>
        <pt x="423" y="714" on="1"/>
        <pt x="498" y="714" on="1"/>
        <pt x="498" y="711" on="1"/>
        <pt x="322" y="435" on="1"/>
        <pt x="527" y="3" on="1"/>
        <pt x="527" y="0" on="1"/>
        <pt x="449" y="0" on="1"/>
        <pt x="414" y="77" on="0"/>
        <pt x="382" y="147" on="1"/>
        <pt x="368" y="177" on="0"/>
        <pt x="340" y="240" on="0"/>
        <pt x="312" y="299" on="0"/>
        <pt x="288" y="351" on="0"/>
        <pt x="279" y="370" on="1"/>
        <pt x="254" y="328" on="0"/>
        <pt x="199" y="245" on="0"/>
        <pt x="173" y="203" on="1"/>
      </contour>
    </TTGlyph>
    <TTGlyph name="L" xMin="101" yMin="0" xMax="447" yMax="714">
      <contour>
        <pt x="101" y="0" on="1"/>
        <pt x="101" y="714" on="1"/>
        <pt x="173" y="714" on="1"/>
        <pt x="173" y="73" on="1"/>
        <pt x="447" y="73" on="1"/>
        <pt x="447" y="0" on="1"/>
      </contour>
    </TTGlyph>
    <TTGlyph name="M" xMin="101" yMin="0" xMax="607" yMax="714">
      <contour>
        <pt x="174" y="0" on="1"/>
        <pt x="101" y="0" on="1"/>
        <pt x="101" y="714" on="1"/>
        <pt x="176" y="714" on="1"/>
        <pt x="176" y="713" on="1"/>
        <pt x="353" y="229" on="1"/>
        <pt x="531" y="713" on="1"/>
        <pt x="531" y="714" on="1"/>
        <pt x="607" y="714" on="1"/>
        <pt x="607" y="0" on="1"/>
        <pt x="535" y="0" on="1"/>
        <pt x="535" y="2" on="1"/>
        <pt x="533" y="522" on="1"/>
        <pt x="382" y="111" on="1"/>
        <pt x="382" y="110" on="1"/>
        <pt x="324" y="110" on="1"/>
        <pt x="324" y="111" on="1"/>
        <pt x="174" y="518" on="1"/>
      </contour>
    </TTGlyph>
    <TTGlyph name="N" xMin="101" yMin="0" xMax="534" yMax="714">
      <contour>
        <pt x="173" y="0" on="1"/>
        <pt x="101" y="0" on="1"/>
        <pt x="101" y="714" on="1"/>
        <pt x="175" y="714" on="1"/>
        <pt x="175" y="713" on="1"/>
        <pt x="462" y="150" on="1"/>
        <pt x="462" y="714" on="1"/>
        <pt x="534" y="714" on="1"/>
        <pt x="534" y="0" on="1"/>
        <pt x="461" y="0" on="1"/>
        <pt x="461" y="1" on="1"/>
        <pt x="173" y="568" on="1"/>
      </contour>
    </TTGlyph>
    <TTGlyph name="O" xMin="74" yMin="-10" xMax="466" yMax="725">
      <contour>
        <pt x="466" y="143" on="1"/>
        <pt x="466" y="105" on="0"/>
        <pt x="438" y="47" on="0"/>
        <pt x="388" y="9" on="0"/>
        <pt x="317" y="-10" on="0"/>
        <pt x="275" y="-10" on="1"/>
        <pt x="266" y="-10" on="1"/>
        <pt x="222" y="-10" on="0"/>
        <pt x="150" y="12" on="0"/>
        <pt x="101" y="53" on="0"/>
        <pt x="74" y="109" on="0"/>
        <pt x="75" y="143" on="1"/>
        <pt x="75" y="571" on="1"/>
        <pt x="75" y="604" on="0"/>
        <pt x="101" y="661" on="0"/>
        <pt x="151" y="702" on="0"/>
        <pt x="222" y="725" on="0"/>
        <pt x="266" y="725" on="1"/>
        <pt x="275" y="725" on="1"/>
        <pt x="320" y="725" on="0"/>
        <pt x="390" y="702" on="0"/>
        <pt x="440" y="661" on="0"/>
        <pt x="466" y="604" on="0"/>
        <pt x="466" y="571" on="1"/>
      </contour>
      <contour>
        <pt x="395" y="562" on="1"/>
        <pt x="395" y="613" on="0"/>
        <pt x="340" y="653" on="0"/>
        <pt x="270" y="653" on="1"/>
        <pt x="199" y="653" on="0"/>
        <pt x="147" y="607" on="0"/>
        <pt x="147" y="558" on="1"/>
        <pt x="147" y="158" on="1"/>
        <pt x="147" y="109" on="0"/>
        <pt x="199" y="62" on="0"/>
        <pt x="270" y="62" on="1"/>
        <pt x="305" y="62" on="0"/>
        <pt x="353" y="71" on="0"/>
        <pt x="382" y="93" on="0"/>
        <pt x="395" y="128" on="0"/>
        <pt x="395" y="154" on="1"/>
      </contour>
    </TTGlyph>
    <TTGlyph name="P" xMin="101" yMin="0" xMax="496" yMax="714">
      <contour>
        <pt x="174" y="293" on="1"/>
        <pt x="174" y="0" on="1"/>
        <pt x="101" y="0" on="1"/>
        <pt x="101" y="714" on="1"/>
        <pt x="324" y="714" on="1"/>
        <pt x="408" y="714" on="0"/>
        <pt x="496" y="634" on="0"/>
        <pt x="494" y="565" on="1"/>
        <pt x="494" y="445" on="1"/>
        <pt x="496" y="376" on="0"/>
        <pt x="412" y="293" on="0"/>
        <pt x="324" y="293" on="1"/>
      </contour>
      <contour>
        <pt x="174" y="641" on="1"/>
        <pt x="174" y="365" on="1"/>
        <pt x="324" y="365" on="1"/>
        <pt x="375" y="365" on="0"/>
        <pt x="422" y="400" on="0"/>
        <pt x="422" y="451" on="1"/>
        <pt x="422" y="554" on="1"/>
        <pt x="422" y="580" on="0"/>
        <pt x="414" y="614" on="0"/>
        <pt x="392" y="633" on="0"/>
        <pt x="354" y="641" on="0"/>
        <pt x="324" y="641" on="1"/>
      </contour>
    </TTGlyph>
    <TTGlyph name="Q" xMin="74" yMin="-24" xMax="472" yMax="727">
      <contour>
        <pt x="465" y="143" on="1"/>
        <pt x="465" y="84" on="0"/>
        <pt x="432" y="46" on="1"/>
        <pt x="472" y="-21" on="1"/>
        <pt x="472" y="-24" on="1"/>
        <pt x="400" y="-24" on="1"/>
        <pt x="400" y="-23" on="1"/>
        <pt x="381" y="9" on="1"/>
        <pt x="358" y="0" on="0"/>
        <pt x="305" y="-10" on="0"/>
        <pt x="274" y="-10" on="1"/>
        <pt x="267" y="-10" on="1"/>
        <pt x="222" y="-10" on="0"/>
        <pt x="151" y="12" on="0"/>
        <pt x="101" y="53" on="0"/>
        <pt x="74" y="109" on="0"/>
        <pt x="75" y="143" on="1"/>
        <pt x="75" y="572" on="1"/>
        <pt x="75" y="640" on="0"/>
        <pt x="177" y="727" on="0"/>
        <pt x="267" y="727" on="1"/>
        <pt x="274" y="727" on="1"/>
        <pt x="365" y="727" on="0"/>
        <pt x="465" y="640" on="0"/>
        <pt x="465" y="572" on="1"/>
      </contour>
      <contour>
        <pt x="393" y="564" on="1"/>
        <pt x="393" y="615" on="0"/>
        <pt x="339" y="655" on="0"/>
        <pt x="271" y="655" on="1"/>
        <pt x="199" y="655" on="0"/>
        <pt x="147" y="609" on="0"/>
        <pt x="147" y="559" on="1"/>
        <pt x="147" y="157" on="1"/>
        <pt x="147" y="108" on="0"/>
        <pt x="199" y="62" on="0"/>
        <pt x="271" y="62" on="1"/>
        <pt x="294" y="62" on="0"/>
        <pt x="330" y="66" on="0"/>
        <pt x="344" y="71" on="1"/>
        <pt x="262" y="210" on="1"/>
        <pt x="262" y="213" on="1"/>
        <pt x="335" y="213" on="1"/>
        <pt x="335" y="212" on="1"/>
        <pt x="389" y="119" on="1"/>
        <pt x="393" y="132" on="0"/>
        <pt x="393" y="153" on="1"/>
      </contour>
    </TTGlyph>
    <TTGlyph name="R" xMin="101" yMin="0" xMax="499" yMax="714">
      <contour>
        <pt x="173" y="294" on="1"/>
        <pt x="173" y="0" on="1"/>
        <pt x="101" y="0" on="1"/>
        <pt x="101" y="714" on="1"/>
        <pt x="309" y="714" on="1"/>
        <pt x="392" y="714" on="0"/>
        <pt x="481" y="635" on="0"/>
        <pt x="481" y="566" on="1"/>
        <pt x="481" y="446" on="1"/>
        <pt x="481" y="389" on="0"/>
        <pt x="424" y="311" on="0"/>
        <pt x="365" y="298" on="1"/>
        <pt x="499" y="5" on="1"/>
        <pt x="499" y="2" on="1"/>
        <pt x="420" y="2" on="1"/>
        <pt x="420" y="3" on="1"/>
        <pt x="393" y="62" on="0"/>
        <pt x="368" y="117" on="1"/>
        <pt x="357" y="140" on="0"/>
        <pt x="334" y="190" on="0"/>
        <pt x="313" y="237" on="0"/>
        <pt x="294" y="279" on="0"/>
        <pt x="287" y="295" on="1"/>
        <pt x="287" y="294" on="1"/>
      </contour>
      <contour>
        <pt x="173" y="641" on="1"/>
        <pt x="173" y="366" on="1"/>
        <pt x="309" y="366" on="1"/>
        <pt x="360" y="366" on="0"/>
        <pt x="410" y="401" on="0"/>
        <pt x="410" y="452" on="1"/>
        <pt x="410" y="554" on="1"/>
        <pt x="410" y="580" on="0"/>
        <pt x="401" y="614" on="0"/>
        <pt x="379" y="633" on="0"/>
        <pt x="339" y="641" on="0"/>
        <pt x="309" y="641" on="1"/>
      </contour>
    </TTGlyph>
    <TTGlyph name="S" xMin="40" yMin="-10" xMax="433" yMax="724">
      <contour>
        <pt x="233" y="-10" on="1"/>
        <pt x="189" y="-10" on="0"/>
        <pt x="117" y="12" on="0"/>
        <pt x="67" y="53" on="0"/>
        <pt x="40" y="109" on="0"/>
        <pt x="40" y="142" on="1"/>
        <pt x="40" y="200" on="1"/>
        <pt x="114" y="200" on="1"/>
        <pt x="114" y="156" on="1"/>
        <pt x="114" y="132" on="0"/>
        <pt x="125" y="96" on="0"/>
        <pt x="153" y="73" on="0"/>
        <pt x="201" y="61" on="0"/>
        <pt x="237" y="61" on="1"/>
        <pt x="307" y="61" on="0"/>
        <pt x="362" y="101" on="0"/>
        <pt x="362" y="151" on="1"/>
        <pt x="362" y="238" on="1"/>
        <pt x="362" y="284" on="0"/>
        <pt x="285" y="323" on="0"/>
        <pt x="213" y="336" on="1"/>
        <pt x="176" y="342" on="0"/>
        <pt x="113" y="364" on="0"/>
        <pt x="66" y="401" on="0"/>
        <pt x="40" y="454" on="0"/>
        <pt x="40" y="491" on="1"/>
        <pt x="40" y="569" on="1"/>
        <pt x="40" y="603" on="0"/>
        <pt x="67" y="660" on="0"/>
        <pt x="117" y="701" on="0"/>
        <pt x="189" y="724" on="0"/>
        <pt x="233" y="724" on="1"/>
        <pt x="241" y="724" on="1"/>
        <pt x="331" y="724" on="0"/>
        <pt x="433" y="637" on="0"/>
        <pt x="433" y="569" on="1"/>
        <pt x="433" y="539" on="1"/>
        <pt x="362" y="539" on="1"/>
        <pt x="362" y="561" on="1"/>
        <pt x="362" y="612" on="0"/>
        <pt x="307" y="652" on="0"/>
        <pt x="237" y="652" on="1"/>
        <pt x="201" y="652" on="0"/>
        <pt x="153" y="641" on="0"/>
        <pt x="125" y="617" on="0"/>
        <pt x="114" y="581" on="0"/>
        <pt x="114" y="557" on="1"/>
        <pt x="114" y="504" on="1"/>
        <pt x="114" y="456" on="0"/>
        <pt x="172" y="413" on="0"/>
        <pt x="237" y="400" on="1"/>
        <pt x="274" y="392" on="0"/>
        <pt x="345" y="371" on="0"/>
        <pt x="400" y="337" on="0"/>
        <pt x="433" y="287" on="0"/>
        <pt x="433" y="251" on="1"/>
        <pt x="433" y="142" on="1"/>
        <pt x="433" y="104" on="0"/>
        <pt x="405" y="47" on="0"/>
        <pt x="354" y="9" on="0"/>
        <pt x="283" y="-10" on="0"/>
        <pt x="241" y="-10" on="1"/>
      </contour>
    </TTGlyph>
    <TTGlyph name="T" xMin="29" yMin="0" xMax="452" yMax="714">
      <contour>
        <pt x="29" y="641" on="1"/>
        <pt x="29" y="714" on="1"/>
        <pt x="452" y="714" on="1"/>
        <pt x="452" y="641" on="1"/>
        <pt x="277" y="641" on="1"/>
        <pt x="277" y="0" on="1"/>
        <pt x="205" y="0" on="1"/>
        <pt x="205" y="641" on="1"/>
      </contour>
    </TTGlyph>
    <TTGlyph name="U" xMin="91" yMin="-10" xMax="483" yMax="714">
      <contour>
        <pt x="283" y="-10" on="1"/>
        <pt x="239" y="-10" on="0"/>
        <pt x="167" y="13" on="0"/>
        <pt x="118" y="53" on="0"/>
        <pt x="91" y="110" on="0"/>
        <pt x="92" y="144" on="1"/>
        <pt x="92" y="714" on="1"/>
        <pt x="164" y="714" on="1"/>
        <pt x="164" y="157" on="1"/>
        <pt x="164" y="108" on="0"/>
        <pt x="216" y="60" on="0"/>
        <pt x="288" y="60" on="1"/>
        <pt x="357" y="60" on="0"/>
        <pt x="412" y="102" on="0"/>
        <pt x="412" y="153" on="1"/>
        <pt x="412" y="714" on="1"/>
        <pt x="483" y="714" on="1"/>
        <pt x="483" y="144" on="1"/>
        <pt x="483" y="105" on="0"/>
        <pt x="455" y="48" on="0"/>
        <pt x="404" y="9" on="0"/>
        <pt x="333" y="-10" on="0"/>
        <pt x="291" y="-10" on="1"/>
      </contour>
    </TTGlyph>
    <TTGlyph name="V" xMin="7" yMin="0" xMax="445" yMax="714">
      <contour>
        <pt x="7" y="711" on="1"/>
        <pt x="7" y="714" on="1"/>
        <pt x="82" y="714" on="1"/>
        <pt x="82" y="712" on="1"/>
        <pt x="226" y="147" on="1"/>
        <pt x="243" y="216" on="0"/>
        <pt x="281" y="360" on="0"/>
        <pt x="298" y="430" on="1"/>
        <pt x="370" y="712" on="1"/>
        <pt x="370" y="714" on="1"/>
        <pt x="445" y="714" on="1"/>
        <pt x="445" y="711" on="1"/>
        <pt x="257" y="1" on="1"/>
        <pt x="257" y="0" on="1"/>
        <pt x="197" y="0" on="1"/>
        <pt x="197" y="1" on="1"/>
      </contour>
    </TTGlyph>
    <TTGlyph name="W" xMin="15" yMin="0" xMax="692" yMax="714">
      <contour>
        <pt x="15" y="712" on="1"/>
        <pt x="15" y="714" on="1"/>
        <pt x="85" y="714" on="1"/>
        <pt x="85" y="712" on="1"/>
        <pt x="197" y="151" on="1"/>
        <pt x="323" y="712" on="1"/>
        <pt x="323" y="714" on="1"/>
        <pt x="384" y="714" on="1"/>
        <pt x="384" y="712" on="1"/>
        <pt x="510" y="152" on="1"/>
        <pt x="621" y="712" on="1"/>
        <pt x="621" y="714" on="1"/>
        <pt x="692" y="714" on="1"/>
        <pt x="692" y="712" on="1"/>
        <pt x="542" y="2" on="1"/>
        <pt x="542" y="0" on="1"/>
        <pt x="480" y="0" on="1"/>
        <pt x="480" y="2" on="1"/>
        <pt x="353" y="560" on="1"/>
        <pt x="288" y="280" on="1"/>
        <pt x="271" y="210" on="0"/>
        <pt x="241" y="71" on="0"/>
        <pt x="225" y="2" on="1"/>
        <pt x="225" y="0" on="1"/>
        <pt x="163" y="0" on="1"/>
        <pt x="163" y="2" on="1"/>
      </contour>
    </TTGlyph>
    <TTGlyph name="X" xMin="16" yMin="0" xMax="440" yMax="714">
      <contour>
        <pt x="225" y="293" on="1"/>
        <pt x="91" y="1" on="1"/>
        <pt x="91" y="0" on="1"/>
        <pt x="16" y="1" on="1"/>
        <pt x="41" y="57" on="0"/>
        <pt x="70" y="118" on="1"/>
        <pt x="95" y="170" on="0"/>
        <pt x="157" y="300" on="0"/>
        <pt x="190" y="367" on="1"/>
        <pt x="170" y="409" on="0"/>
        <pt x="128" y="496" on="0"/>
        <pt x="108" y="538" on="1"/>
        <pt x="99" y="558" on="0"/>
        <pt x="77" y="603" on="0"/>
        <pt x="55" y="648" on="0"/>
        <pt x="35" y="692" on="0"/>
        <pt x="26" y="711" on="1"/>
        <pt x="26" y="714" on="1"/>
        <pt x="104" y="713" on="1"/>
        <pt x="125" y="664" on="0"/>
        <pt x="147" y="616" on="1"/>
        <pt x="166" y="574" on="0"/>
        <pt x="208" y="480" on="0"/>
        <pt x="228" y="439" on="1"/>
        <pt x="248" y="481" on="0"/>
        <pt x="292" y="576" on="0"/>
        <pt x="311" y="618" on="1"/>
        <pt x="332" y="666" on="0"/>
        <pt x="353" y="713" on="1"/>
        <pt x="353" y="714" on="1"/>
        <pt x="428" y="714" on="1"/>
        <pt x="428" y="711" on="1"/>
        <pt x="266" y="367" on="1"/>
        <pt x="297" y="304" on="0"/>
        <pt x="359" y="175" on="0"/>
        <pt x="384" y="122" on="1"/>
        <pt x="413" y="60" on="0"/>
        <pt x="440" y="3" on="1"/>
        <pt x="440" y="0" on="1"/>
        <pt x="364" y="0" on="1"/>
        <pt x="364" y="1" on="1"/>
      </contour>
    </TTGlyph>
    <TTGlyph name="Y" xMin="7" yMin="0" xMax="424" yMax="714">
      <contour>
        <pt x="252" y="300" on="1"/>
        <pt x="252" y="0" on="1"/>
        <pt x="180" y="0" on="1"/>
        <pt x="180" y="300" on="1"/>
        <pt x="93" y="505" on="1"/>
        <pt x="7" y="711" on="1"/>
        <pt x="7" y="714" on="1"/>
        <pt x="82" y="713" on="1"/>
        <pt x="110" y="641" on="0"/>
        <pt x="136" y="577" on="1"/>
        <pt x="147" y="550" on="0"/>
        <pt x="169" y="492" on="0"/>
        <pt x="190" y="440" on="0"/>
        <pt x="209" y="394" on="0"/>
        <pt x="215" y="379" on="1"/>
        <pt x="222" y="396" on="0"/>
        <pt x="241" y="443" on="0"/>
        <pt x="262" y="497" on="0"/>
        <pt x="284" y="554" on="0"/>
        <pt x="295" y="581" on="1"/>
        <pt x="320" y="644" on="0"/>
        <pt x="346" y="713" on="1"/>
        <pt x="346" y="714" on="1"/>
        <pt x="424" y="714" on="1"/>
        <pt x="424" y="711" on="1"/>
      </contour>
    </TTGlyph>
    <TTGlyph name="Z" xMin="55" yMin="0" xMax="419" yMax="714">
      <contour>
        <pt x="334" y="642" on="1"/>
        <pt x="69" y="642" on="1"/>
        <pt x="69" y="714" on="1"/>
        <pt x="419" y="714" on="1"/>
        <pt x="419" y="651" on="1"/>
        <pt x="140" y="73" on="1"/>
        <pt x="419" y="73" on="1"/>
        <pt x="419" y="0" on="1"/>
        <pt x="55" y="0" on="1"/>
        <pt x="55" y="64" on="1"/>
      </contour>
    </TTGlyph>
    <TTGlyph name="a" xMin="50" yMin="-10" xMax="406" yMax="546">
      <contour>
        <pt x="235" y="546" on="1"/>
        <pt x="315" y="546" on="0"/>
        <pt x="406" y="468" on="0"/>
        <pt x="406" y="398" on="1"/>
        <pt x="406" y="0" on="1"/>
        <pt x="351" y="0" on="1"/>
        <pt x="340" y="41" on="1"/>
        <pt x="318" y="21" on="0"/>
        <pt x="249" y="-10" on="0"/>
        <pt x="211" y="-10" on="1"/>
        <pt x="204" y="-10" on="1"/>
        <pt x="135" y="-10" on="0"/>
        <pt x="50" y="64" on="0"/>
        <pt x="50" y="130" on="1"/>
        <pt x="50" y="160" on="1"/>
        <pt x="50" y="195" on="0"/>
        <pt x="76" y="249" on="0"/>
        <pt x="123" y="285" on="0"/>
        <pt x="186" y="303" on="0"/>
        <pt x="224" y="303" on="1"/>
        <pt x="340" y="303" on="1"/>
        <pt x="340" y="380" on="1"/>
        <pt x="340" y="404" on="0"/>
        <pt x="331" y="441" on="0"/>
        <pt x="307" y="466" on="0"/>
        <pt x="265" y="478" on="0"/>
        <pt x="231" y="478" on="1"/>
        <pt x="201" y="478" on="0"/>
        <pt x="160" y="471" on="0"/>
        <pt x="136" y="454" on="0"/>
        <pt x="126" y="424" on="0"/>
        <pt x="126" y="402" on="1"/>
        <pt x="126" y="391" on="1"/>
        <pt x="59" y="391" on="1"/>
        <pt x="59" y="404" on="1"/>
        <pt x="59" y="442" on="0"/>
        <pt x="85" y="496" on="0"/>
        <pt x="130" y="530" on="0"/>
        <pt x="193" y="546" on="0"/>
        <pt x="229" y="546" on="1"/>
      </contour>
      <contour>
        <pt x="235" y="58" on="1"/>
        <pt x="277" y="62" on="0"/>
        <pt x="335" y="117" on="0"/>
        <pt x="338" y="165" on="1"/>
        <pt x="338" y="241" on="1"/>
        <pt x="229" y="241" on="1"/>
        <pt x="167" y="241" on="0"/>
        <pt x="117" y="197" on="0"/>
        <pt x="117" y="142" on="1"/>
        <pt x="117" y="92" on="0"/>
        <pt x="166" y="58" on="0"/>
        <pt x="215" y="58" on="1"/>
      </contour>
    </TTGlyph>
    <TTGlyph name="arrowleft" xMin="127" yMin="110" xMax="872" yMax="570">
      <contour>
        <pt x="277" y="379" on="1"/>
        <pt x="872" y="379" on="1"/>
        <pt x="872" y="299" on="1"/>
        <pt x="277" y="299" on="1"/>
        <pt x="466" y="110" on="1"/>
        <pt x="357" y="110" on="1"/>
        <pt x="127" y="338" on="1"/>
        <pt x="357" y="570" on="1"/>
        <pt x="466" y="570" on="1"/>
      </contour>
    </TTGlyph>
    <TTGlyph name="asciicircum" xMin="72" yMin="413" xMax="465" yMax="718">
      <contour>
        <pt x="391" y="413" on="1"/>
        <pt x="269" y="641" on="1"/>
        <pt x="146" y="413" on="1"/>
        <pt x="72" y="413" on="1"/>
        <pt x="236" y="718" on="1"/>
        <pt x="302" y="718" on="1"/>
        <pt x="465" y="413" on="1"/>
      </contour>
    </TTGlyph>
    <TTGlyph name="asterisk" xMin="52" yMin="144" xMax="460" yMax="575">
      <contour>
        <pt x="425" y="497" on="1"/>
        <pt x="460" y="438" on="1"/>
        <pt x="324" y="360" on="1"/>
        <pt x="460" y="281" on="1"/>
        <pt x="426" y="222" on="1"/>
        <pt x="291" y="300" on="1"/>
        <pt x="291" y="144" on="1"/>
        <pt x="223" y="144" on="1"/>
        <pt x="223" y="301" on="1"/>
        <pt x="86" y="223" on="1"/>
        <pt x="52" y="281" on="1"/>
        <pt x="188" y="360" on="1"/>
        <pt x="53" y="438" on="1"/>
        <pt x="87" y="497" on="1"/>
        <pt x="223" y="418" on="1"/>
        <pt x="223" y="575" on="1"/>
        <pt x="291" y="575" on="1"/>
        <pt x="291" y="419" on="1"/>
      </contour>
    </TTGlyph>
    <TTGlyph name="b" xMin="90" yMin="-10" xMax="443" yMax="725">
      <contour>
        <pt x="291" y="546" on="1"/>
        <pt x="361" y="543" on="0"/>
        <pt x="443" y="475" on="0"/>
        <pt x="443" y="406" on="1"/>
        <pt x="443" y="131" on="1"/>
        <pt x="443" y="62" on="0"/>
        <pt x="361" y="-7" on="0"/>
        <pt x="291" y="-10" on="1"/>
        <pt x="285" y="-10" on="1"/>
        <pt x="247" y="-10" on="0"/>
        <pt x="175" y="28" on="0"/>
        <pt x="158" y="59" on="1"/>
        <pt x="148" y="0" on="1"/>
        <pt x="90" y="0" on="1"/>
        <pt x="90" y="725" on="1"/>
        <pt x="158" y="725" on="1"/>
        <pt x="158" y="494" on="1"/>
        <pt x="181" y="518" on="0"/>
        <pt x="247" y="546" on="0"/>
        <pt x="285" y="546" on="1"/>
      </contour>
      <contour>
        <pt x="375" y="386" on="1"/>
        <pt x="375" y="435" on="0"/>
        <pt x="328" y="478" on="0"/>
        <pt x="280" y="478" on="1"/>
        <pt x="262" y="478" on="1"/>
        <pt x="228" y="478" on="0"/>
        <pt x="175" y="440" on="0"/>
        <pt x="158" y="397" on="1"/>
        <pt x="158" y="163" on="1"/>
        <pt x="163" y="145" on="0"/>
        <pt x="184" y="108" on="0"/>
        <pt x="211" y="78" on="0"/>
        <pt x="244" y="58" on="0"/>
        <pt x="262" y="58" on="1"/>
        <pt x="280" y="58" on="1"/>
        <pt x="328" y="58" on="0"/>
        <pt x="375" y="103" on="0"/>
        <pt x="375" y="142" on="1"/>
      </contour>
    </TTGlyph>
    <TTGlyph name="c" xMin="65" yMin="-10" xMax="420" yMax="546">
      <contour>
        <pt x="420" y="137" on="1"/>
        <pt x="420" y="64" on="0"/>
        <pt x="325" y="-10" on="0"/>
        <pt x="247" y="-10" on="1"/>
        <pt x="239" y="-10" on="1"/>
        <pt x="199" y="-10" on="0"/>
        <pt x="134" y="12" on="0"/>
        <pt x="89" y="52" on="0"/>
        <pt x="65" y="105" on="0"/>
        <pt x="66" y="137" on="1"/>
        <pt x="66" y="400" on="1"/>
        <pt x="65" y="431" on="0"/>
        <pt x="89" y="485" on="0"/>
        <pt x="134" y="524" on="0"/>
        <pt x="199" y="546" on="0"/>
        <pt x="239" y="546" on="1"/>
        <pt x="247" y="546" on="1"/>
        <pt x="287" y="546" on="0"/>
        <pt x="352" y="524" on="0"/>
        <pt x="396" y="485" on="0"/>
        <pt x="420" y="431" on="0"/>
        <pt x="420" y="400" on="1"/>
        <pt x="420" y="384" on="1"/>
        <pt x="352" y="384" on="1"/>
        <pt x="352" y="395" on="1"/>
        <pt x="352" y="438" on="0"/>
        <pt x="307" y="478" on="0"/>
        <pt x="244" y="478" on="1"/>
        <pt x="211" y="478" on="0"/>
        <pt x="168" y="464" on="0"/>
        <pt x="143" y="439" on="0"/>
        <pt x="134" y="402" on="0"/>
        <pt x="134" y="380" on="1"/>
        <pt x="134" y="156" on="1"/>
        <pt x="134" y="134" on="0"/>
        <pt x="143" y="98" on="0"/>
        <pt x="168" y="72" on="0"/>
        <pt x="211" y="58" on="0"/>
        <pt x="244" y="58" on="1"/>
        <pt x="307" y="58" on="0"/>
        <pt x="352" y="106" on="0"/>
        <pt x="352" y="144" on="1"/>
        <pt x="352" y="158" on="1"/>
        <pt x="420" y="158" on="1"/>
      </contour>
    </TTGlyph>
    <TTGlyph name="colon" xMin="75" yMin="155" xMax="147" yMax="562">
      <contour>
        <pt x="75" y="452" on="1"/>
        <pt x="75" y="562" on="1"/>
        <pt x="147" y="562" on="1"/>
        <pt x="147" y="452" on="1"/>
      </contour>
      <contour>
        <pt x="75" y="155" on="1"/>
        <pt x="75" y="264" on="1"/>
        <pt x="147" y="264" on="1"/>
        <pt x="147" y="155" on="1"/>
      </contour>
    </TTGlyph>
    <TTGlyph name="comma" xMin="79" yMin="-119" xMax="165" yMax="110">
      <contour>
        <pt x="79" y="-84" on="1"/>
        <pt x="102" y="-69" on="0"/>
        <pt x="119" y="-18" on="0"/>
        <pt x="119" y="0" on="1"/>
        <pt x="82" y="0" on="1"/>
        <pt x="82" y="110" on="1"/>
        <pt x="165" y="110" on="1"/>
        <pt x="165" y="0" on="1"/>
        <pt x="165" y="-17" on="0"/>
        <pt x="153" y="-52" on="0"/>
        <pt x="131" y="-84" on="0"/>
        <pt x="99" y="-111" on="0"/>
        <pt x="79" y="-119" on="1"/>
      </contour>
    </TTGlyph>
    <TTGlyph name="d" xMin="65" yMin="-10" xMax="418" yMax="725">
      <contour>
        <pt x="217" y="546" on="1"/>
        <pt x="223" y="546" on="1"/>
        <pt x="261" y="546" on="0"/>
        <pt x="327" y="518" on="0"/>
        <pt x="350" y="494" on="1"/>
        <pt x="350" y="725" on="1"/>
        <pt x="418" y="725" on="1"/>
        <pt x="418" y="0" on="1"/>
        <pt x="360" y="0" on="1"/>
        <pt x="350" y="59" on="1"/>
        <pt x="333" y="28" on="0"/>
        <pt x="261" y="-10" on="0"/>
        <pt x="223" y="-10" on="1"/>
        <pt x="217" y="-10" on="1"/>
        <pt x="147" y="-7" on="0"/>
        <pt x="65" y="62" on="0"/>
        <pt x="65" y="131" on="1"/>
        <pt x="65" y="406" on="1"/>
        <pt x="65" y="475" on="0"/>
        <pt x="147" y="543" on="0"/>
      </contour>
      <contour>
        <pt x="133" y="142" on="1"/>
        <pt x="133" y="103" on="0"/>
        <pt x="180" y="58" on="0"/>
        <pt x="228" y="58" on="1"/>
        <pt x="246" y="58" on="1"/>
        <pt x="264" y="58" on="0"/>
        <pt x="297" y="78" on="0"/>
        <pt x="324" y="108" on="0"/>
        <pt x="345" y="145" on="0"/>
        <pt x="350" y="163" on="1"/>
        <pt x="350" y="397" on="1"/>
        <pt x="333" y="440" on="0"/>
        <pt x="280" y="478" on="0"/>
        <pt x="246" y="478" on="1"/>
        <pt x="228" y="478" on="1"/>
        <pt x="180" y="478" on="0"/>
        <pt x="133" y="435" on="0"/>
        <pt x="133" y="386" on="1"/>
      </contour>
    </TTGlyph>
    <TTGlyph name="degree" xMin="57" yMin="510" xMax="254" yMax="707">
      <contour>
        <pt x="155" y="510" on="1"/>
        <pt x="135" y="510" on="0"/>
        <pt x="99" y="525" on="0"/>
        <pt x="72" y="552" on="0"/>
        <pt x="57" y="587" on="0"/>
        <pt x="57" y="607" on="1"/>
        <pt x="57" y="627" on="0"/>
        <pt x="72" y="664" on="0"/>
        <pt x="99" y="691" on="0"/>
        <pt x="135" y="707" on="0"/>
        <pt x="155" y="707" on="1"/>
        <pt x="176" y="707" on="0"/>
        <pt x="212" y="691" on="0"/>
        <pt x="239" y="664" on="0"/>
        <pt x="254" y="627" on="0"/>
        <pt x="254" y="607" on="1"/>
        <pt x="254" y="587" on="0"/>
        <pt x="239" y="552" on="0"/>
        <pt x="212" y="525" on="0"/>
        <pt x="176" y="510" on="0"/>
      </contour>
      <contour>
        <pt x="155" y="647" on="1"/>
        <pt x="140" y="647" on="0"/>
        <pt x="117" y="624" on="0"/>
        <pt x="117" y="607" on="1"/>
        <pt x="117" y="593" on="0"/>
        <pt x="140" y="569" on="0"/>
        <pt x="155" y="569" on="1"/>
        <pt x="171" y="569" on="0"/>
        <pt x="195" y="593" on="0"/>
        <pt x="195" y="607" on="1"/>
        <pt x="195" y="624" on="0"/>
        <pt x="171" y="647" on="0"/>
      </contour>
    </TTGlyph>
    <TTGlyph name="divide" xMin="85" yMin="95" xMax="478" yMax="526">
      <contour>
        <pt x="320" y="526" on="1"/>
        <pt x="320" y="436" on="1"/>
        <pt x="243" y="436" on="1"/>
        <pt x="243" y="526" on="1"/>
      </contour>
      <contour>
        <pt x="320" y="186" on="1"/>
        <pt x="320" y="95" on="1"/>
        <pt x="243" y="95" on="1"/>
        <pt x="243" y="186" on="1"/>
      </contour>
      <contour>
        <pt x="478" y="345" on="1"/>
        <pt x="478" y="277" on="1"/>
        <pt x="85" y="277" on="1"/>
        <pt x="85" y="345" on="1"/>
      </contour>
    </TTGlyph>
    <TTGlyph name="e" xMin="65" yMin="-10" xMax="423" yMax="546">
      <contour>
        <pt x="133" y="157" on="1"/>
        <pt x="133" y="134" on="0"/>
        <pt x="142" y="98" on="0"/>
        <pt x="167" y="72" on="0"/>
        <pt x="210" y="58" on="0"/>
        <pt x="243" y="58" on="1"/>
        <pt x="295" y="58" on="0"/>
        <pt x="351" y="93" on="0"/>
        <pt x="351" y="134" on="1"/>
        <pt x="423" y="134" on="1"/>
        <pt x="423" y="63" on="0"/>
        <pt x="324" y="-10" on="0"/>
        <pt x="245" y="-10" on="1"/>
        <pt x="239" y="-10" on="1"/>
        <pt x="199" y="-10" on="0"/>
        <pt x="134" y="12" on="0"/>
        <pt x="89" y="52" on="0"/>
        <pt x="65" y="105" on="0"/>
        <pt x="65" y="137" on="1"/>
        <pt x="65" y="400" on="1"/>
        <pt x="65" y="431" on="0"/>
        <pt x="89" y="485" on="0"/>
        <pt x="134" y="524" on="0"/>
        <pt x="199" y="546" on="0"/>
        <pt x="239" y="546" on="1"/>
        <pt x="245" y="546" on="1"/>
        <pt x="286" y="546" on="0"/>
        <pt x="351" y="524" on="0"/>
        <pt x="396" y="485" on="0"/>
        <pt x="420" y="431" on="0"/>
        <pt x="420" y="400" on="1"/>
        <pt x="420" y="250" on="1"/>
        <pt x="133" y="250" on="1"/>
      </contour>
      <contour>
        <pt x="243" y="478" on="1"/>
        <pt x="210" y="478" on="0"/>
        <pt x="167" y="464" on="0"/>
        <pt x="142" y="439" on="0"/>
        <pt x="133" y="402" on="0"/>
        <pt x="133" y="380" on="1"/>
        <pt x="133" y="306" on="1"/>
        <pt x="352" y="306" on="1"/>
        <pt x="352" y="384" on="1"/>
        <pt x="352" y="431" on="0"/>
        <pt x="306" y="478" on="0"/>
      </contour>
    </TTGlyph>
    <TTGlyph name="eight" xMin="76" yMin="-12" xMax="404" yMax="725">
      <contour>
        <pt x="404" y="588" on="1"/>
        <pt x="404" y="478" on="1"/>
        <pt x="404" y="440" on="0"/>
        <pt x="376" y="387" on="0"/>
        <pt x="350" y="370" on="1"/>
        <pt x="376" y="353" on="0"/>
        <pt x="404" y="300" on="0"/>
        <pt x="404" y="262" on="1"/>
        <pt x="404" y="126" on="1"/>
        <pt x="404" y="55" on="0"/>
        <pt x="314" y="-12" on="0"/>
        <pt x="241" y="-10" on="1"/>
        <pt x="167" y="-12" on="0"/>
        <pt x="76" y="55" on="0"/>
        <pt x="76" y="126" on="1"/>
        <pt x="76" y="128" on="0"/>
        <pt x="77" y="168" on="0"/>
        <pt x="77" y="192" on="1"/>
        <pt x="77" y="237" on="1"/>
        <pt x="77" y="258" on="0"/>
        <pt x="76" y="262" on="1"/>
        <pt x="76" y="300" on="0"/>
        <pt x="104" y="353" on="0"/>
        <pt x="130" y="370" on="1"/>
        <pt x="104" y="387" on="0"/>
        <pt x="76" y="440" on="0"/>
        <pt x="76" y="478" on="1"/>
        <pt x="76" y="481" on="0"/>
        <pt x="77" y="513" on="0"/>
        <pt x="77" y="532" on="1"/>
        <pt x="77" y="568" on="1"/>
        <pt x="77" y="585" on="0"/>
        <pt x="76" y="588" on="1"/>
        <pt x="76" y="658" on="0"/>
        <pt x="167" y="725" on="0"/>
        <pt x="241" y="725" on="1"/>
        <pt x="314" y="725" on="0"/>
        <pt x="404" y="658" on="0"/>
      </contour>
      <contour>
        <pt x="241" y="58" on="1"/>
        <pt x="268" y="58" on="0"/>
        <pt x="303" y="67" on="0"/>
        <pt x="325" y="89" on="0"/>
        <pt x="335" y="125" on="0"/>
        <pt x="336" y="152" on="1"/>
        <pt x="336" y="234" on="1"/>
        <pt x="334" y="288" on="0"/>
        <pt x="293" y="330" on="0"/>
        <pt x="241" y="330" on="1"/>
        <pt x="186" y="330" on="0"/>
        <pt x="146" y="288" on="0"/>
        <pt x="146" y="234" on="1"/>
        <pt x="146" y="152" on="1"/>
        <pt x="146" y="98" on="0"/>
        <pt x="186" y="58" on="0"/>
      </contour>
      <contour>
        <pt x="241" y="410" on="1"/>
        <pt x="268" y="410" on="0"/>
        <pt x="303" y="420" on="0"/>
        <pt x="325" y="442" on="0"/>
        <pt x="335" y="479" on="0"/>
        <pt x="336" y="506" on="1"/>
        <pt x="336" y="561" on="1"/>
        <pt x="335" y="588" on="0"/>
        <pt x="325" y="625" on="0"/>
        <pt x="303" y="647" on="0"/>
        <pt x="268" y="657" on="0"/>
        <pt x="241" y="657" on="1"/>
        <pt x="186" y="657" on="0"/>
        <pt x="146" y="615" on="0"/>
        <pt x="146" y="561" on="1"/>
        <pt x="146" y="506" on="1"/>
        <pt x="146" y="452" on="0"/>
        <pt x="186" y="410" on="0"/>
      </contour>
    </TTGlyph>
    <TTGlyph name="equal" xMin="75" yMin="179" xMax="420" yMax="437">
      <contour>
        <pt x="420" y="437" on="1"/>
        <pt x="420" y="372" on="1"/>
        <pt x="75" y="372" on="1"/>
        <pt x="75" y="437" on="1"/>
      </contour>
      <contour>
        <pt x="420" y="244" on="1"/>
        <pt x="420" y="179" on="1"/>
        <pt x="75" y="179" on="1"/>
        <pt x="75" y="244" on="1"/>
      </contour>
    </TTGlyph>
    <TTGlyph name="exclam" xMin="103" yMin="0" xMax="171" yMax="714">
      <contour>
        <pt x="171" y="84" on="1"/>
        <pt x="171" y="0" on="1"/>
        <pt x="103" y="0" on="1"/>
        <pt x="103" y="84" on="1"/>
      </contour>
      <contour>
        <pt x="171" y="714" on="1"/>
        <pt x="171" y="201" on="1"/>
        <pt x="103" y="201" on="1"/>
        <pt x="103" y="714" on="1"/>
      </contour>
    </TTGlyph>
    <TTGlyph name="f" xMin="43" yMin="0" xMax="279" yMax="725">
      <contour>
        <pt x="186" y="502" on="1"/>
        <pt x="279" y="502" on="1"/>
        <pt x="279" y="434" on="1"/>
        <pt x="186" y="434" on="1"/>
        <pt x="186" y="0" on="1"/>
        <pt x="118" y="0" on="1"/>
        <pt x="118" y="434" on="1"/>
        <pt x="43" y="434" on="1"/>
        <pt x="43" y="502" on="1"/>
        <pt x="118" y="502" on="1"/>
        <pt x="118" y="600" on="1"/>
        <pt x="118" y="669" on="0"/>
        <pt x="184" y="725" on="0"/>
        <pt x="244" y="725" on="1"/>
        <pt x="279" y="725" on="1"/>
        <pt x="279" y="660" on="1"/>
        <pt x="245" y="660" on="1"/>
        <pt x="227" y="660" on="0"/>
        <pt x="205" y="656" on="0"/>
        <pt x="191" y="644" on="0"/>
        <pt x="186" y="620" on="0"/>
        <pt x="186" y="600" on="1"/>
      </contour>
    </TTGlyph>
    <TTGlyph name="five" xMin="69" yMin="-10" xMax="410" yMax="714">
      <contour>
        <pt x="239" y="-10" on="1"/>
        <pt x="69" y="-10" on="0"/>
        <pt x="69" y="133" on="1"/>
        <pt x="69" y="139" on="1"/>
        <pt x="137" y="139" on="1"/>
        <pt x="137" y="133" on="1"/>
        <pt x="137" y="110" on="0"/>
        <pt x="151" y="80" on="0"/>
        <pt x="177" y="64" on="0"/>
        <pt x="215" y="58" on="0"/>
        <pt x="239" y="58" on="1"/>
        <pt x="293" y="58" on="0"/>
        <pt x="342" y="91" on="0"/>
        <pt x="342" y="133" on="1"/>
        <pt x="342" y="351" on="1"/>
        <pt x="342" y="375" on="0"/>
        <pt x="321" y="404" on="0"/>
        <pt x="289" y="420" on="0"/>
        <pt x="254" y="425" on="0"/>
        <pt x="239" y="425" on="1"/>
        <pt x="194" y="425" on="0"/>
        <pt x="137" y="384" on="0"/>
        <pt x="137" y="351" on="1"/>
        <pt x="137" y="345" on="1"/>
        <pt x="69" y="345" on="1"/>
        <pt x="69" y="714" on="1"/>
        <pt x="410" y="714" on="1"/>
        <pt x="410" y="646" on="1"/>
        <pt x="137" y="646" on="1"/>
        <pt x="137" y="461" on="1"/>
        <pt x="155" y="476" on="0"/>
        <pt x="210" y="494" on="0"/>
        <pt x="267" y="494" on="1"/>
        <pt x="297" y="494" on="0"/>
        <pt x="350" y="474" on="0"/>
        <pt x="369" y="454" on="1"/>
        <pt x="410" y="413" on="0"/>
        <pt x="410" y="351" on="1"/>
        <pt x="410" y="133" on="1"/>
        <pt x="410" y="103" on="0"/>
        <pt x="392" y="52" on="0"/>
        <pt x="373" y="34" on="1"/>
        <pt x="330" y="-10" on="0"/>
      </contour>
    </TTGlyph>
    <TTGlyph name="four" xMin="57" yMin="0" xMax="422" yMax="725">
      <contour>
        <pt x="299" y="725" on="1"/>
        <pt x="142" y="178" on="1"/>
        <pt x="273" y="178" on="1"/>
        <pt x="273" y="392" on="1"/>
        <pt x="341" y="392" on="1"/>
        <pt x="341" y="178" on="1"/>
        <pt x="422" y="178" on="1"/>
        <pt x="422" y="110" on="1"/>
        <pt x="341" y="110" on="1"/>
        <pt x="341" y="0" on="1"/>
        <pt x="273" y="0" on="1"/>
        <pt x="273" y="110" on="1"/>
        <pt x="57" y="110" on="1"/>
        <pt x="57" y="144" on="1"/>
        <pt x="232" y="725" on="1"/>
      </contour>
    </TTGlyph>
    <TTGlyph name="g" xMin="54" yMin="-211" xMax="419" yMax="546">
      <contour>
        <pt x="419" y="-62" on="1"/>
        <pt x="419" y="-130" on="0"/>
        <pt x="326" y="-211" on="0"/>
        <pt x="241" y="-211" on="1"/>
        <pt x="232" y="-211" on="1"/>
        <pt x="150" y="-211" on="0"/>
        <pt x="56" y="-135" on="0"/>
        <pt x="56" y="-68" on="1"/>
        <pt x="56" y="-65" on="1"/>
        <pt x="123" y="-65" on="1"/>
        <pt x="123" y="-68" on="1"/>
        <pt x="123" y="-109" on="0"/>
        <pt x="178" y="-143" on="0"/>
        <pt x="234" y="-143" on="1"/>
        <pt x="268" y="-143" on="0"/>
        <pt x="312" y="-130" on="0"/>
        <pt x="338" y="-104" on="0"/>
        <pt x="348" y="-66" on="0"/>
        <pt x="348" y="-40" on="1"/>
        <pt x="348" y="58" on="1"/>
        <pt x="339" y="48" on="0"/>
        <pt x="312" y="27" on="0"/>
        <pt x="278" y="11" on="0"/>
        <pt x="240" y="0" on="0"/>
        <pt x="220" y="0" on="1"/>
        <pt x="211" y="0" on="1"/>
        <pt x="135" y="0" on="0"/>
        <pt x="54" y="75" on="0"/>
        <pt x="54" y="146" on="1"/>
        <pt x="54" y="398" on="1"/>
        <pt x="54" y="470" on="0"/>
        <pt x="138" y="546" on="0"/>
        <pt x="211" y="546" on="1"/>
        <pt x="220" y="546" on="1"/>
        <pt x="258" y="546" on="0"/>
        <pt x="322" y="513" on="0"/>
        <pt x="348" y="493" on="1"/>
        <pt x="348" y="536" on="1"/>
        <pt x="419" y="536" on="1"/>
      </contour>
      <contour>
        <pt x="245" y="68" on="1"/>
        <pt x="262" y="69" on="0"/>
        <pt x="295" y="88" on="0"/>
        <pt x="323" y="116" on="0"/>
        <pt x="343" y="150" on="0"/>
        <pt x="348" y="165" on="1"/>
        <pt x="348" y="370" on="1"/>
        <pt x="342" y="388" on="0"/>
        <pt x="322" y="425" on="0"/>
        <pt x="295" y="456" on="0"/>
        <pt x="262" y="477" on="0"/>
        <pt x="245" y="478" on="1"/>
        <pt x="223" y="478" on="1"/>
        <pt x="173" y="478" on="0"/>
        <pt x="123" y="430" on="0"/>
        <pt x="123" y="378" on="1"/>
        <pt x="123" y="156" on="1"/>
        <pt x="123" y="130" on="0"/>
        <pt x="136" y="96" on="0"/>
        <pt x="161" y="76" on="0"/>
        <pt x="198" y="68" on="0"/>
        <pt x="223" y="68" on="1"/>
      </contour>
    </TTGlyph>
    <TTGlyph name="h" xMin="90" yMin="0" xMax="439" yMax="725">
      <contour>
        <pt x="371" y="390" on="1"/>
        <pt x="371" y="437" on="0"/>
        <pt x="334" y="478" on="0"/>
        <pt x="280" y="478" on="1"/>
        <pt x="263" y="478" on="1"/>
        <pt x="247" y="478" on="0"/>
        <pt x="214" y="465" on="0"/>
        <pt x="186" y="443" on="0"/>
        <pt x="164" y="411" on="0"/>
        <pt x="158" y="393" on="1"/>
        <pt x="158" y="0" on="1"/>
        <pt x="90" y="0" on="1"/>
        <pt x="90" y="725" on="1"/>
        <pt x="158" y="725" on="1"/>
        <pt x="158" y="491" on="1"/>
        <pt x="180" y="517" on="0"/>
        <pt x="238" y="546" on="0"/>
        <pt x="276" y="546" on="1"/>
        <pt x="282" y="546" on="1"/>
        <pt x="312" y="546" on="0"/>
        <pt x="369" y="533" on="0"/>
        <pt x="413" y="501" on="0"/>
        <pt x="439" y="450" on="0"/>
        <pt x="439" y="412" on="1"/>
        <pt x="439" y="0" on="1"/>
        <pt x="371" y="0" on="1"/>
      </contour>
    </TTGlyph>
    <TTGlyph name="hyphen" xMin="76" yMin="277" xMax="318" yMax="345">
      <contour>
        <pt x="318" y="345" on="1"/>
        <pt x="318" y="277" on="1"/>
        <pt x="76" y="277" on="1"/>
        <pt x="76" y="345" on="1"/>
      </contour>
    </TTGlyph>
    <TTGlyph name="i" xMin="80" yMin="0" xMax="148" yMax="725">
      <contour>
        <pt x="80" y="0" on="1"/>
        <pt x="80" y="536" on="1"/>
        <pt x="148" y="536" on="1"/>
        <pt x="148" y="0" on="1"/>
      </contour>
      <contour>
        <pt x="80" y="647" on="1"/>
        <pt x="80" y="725" on="1"/>
        <pt x="148" y="725" on="1"/>
        <pt x="148" y="647" on="1"/>
      </contour>
    </TTGlyph>
    <TTGlyph name="j" xMin="-15" yMin="-175" xMax="144" yMax="725">
      <contour>
        <pt x="14" y="-110" on="1"/>
        <pt x="48" y="-110" on="0"/>
        <pt x="76" y="-80" on="0"/>
        <pt x="76" y="-47" on="1"/>
        <pt x="76" y="536" on="1"/>
        <pt x="144" y="536" on="1"/>
        <pt x="144" y="-45" on="1"/>
        <pt x="144" y="-112" on="0"/>
        <pt x="85" y="-175" on="0"/>
        <pt x="9" y="-175" on="1"/>
        <pt x="-15" y="-175" on="1"/>
        <pt x="-15" y="-110" on="1"/>
      </contour>
      <contour>
        <pt x="76" y="647" on="1"/>
        <pt x="76" y="725" on="1"/>
        <pt x="144" y="725" on="1"/>
        <pt x="144" y="647" on="1"/>
      </contour>
    </TTGlyph>
    <TTGlyph name="k" xMin="90" yMin="0" xMax="456" yMax="725">
      <contour>
        <pt x="293" y="341" on="1"/>
        <pt x="456" y="0" on="1"/>
        <pt x="381" y="0" on="1"/>
        <pt x="248" y="285" on="1"/>
        <pt x="158" y="168" on="1"/>
        <pt x="158" y="0" on="1"/>
        <pt x="90" y="0" on="1"/>
        <pt x="90" y="725" on="1"/>
        <pt x="158" y="725" on="1"/>
        <pt x="158" y="272" on="1"/>
        <pt x="357" y="536" on="1"/>
        <pt x="433" y="536" on="1"/>
      </contour>
    </TTGlyph>
    <TTGlyph name="l" xMin="88" yMin="0" xMax="245" yMax="725">
      <contour>
        <pt x="156" y="135" on="1"/>
        <pt x="156" y="97" on="0"/>
        <pt x="183" y="69" on="0"/>
        <pt x="220" y="69" on="1"/>
        <pt x="245" y="69" on="1"/>
        <pt x="245" y="0" on="1"/>
        <pt x="218" y="0" on="1"/>
        <pt x="148" y="0" on="0"/>
        <pt x="88" y="60" on="0"/>
        <pt x="88" y="132" on="1"/>
        <pt x="88" y="725" on="1"/>
        <pt x="156" y="725" on="1"/>
      </contour>
    </TTGlyph>
    <TTGlyph name="m" xMin="90" yMin="0" xMax="736" yMax="546">
      <contour>
        <pt x="574" y="546" on="1"/>
        <pt x="610" y="546" on="0"/>
        <pt x="669" y="527" on="0"/>
        <pt x="712" y="490" on="0"/>
        <pt x="736" y="436" on="0"/>
        <pt x="735" y="402" on="1"/>
        <pt x="735" y="0" on="1"/>
        <pt x="666" y="0" on="1"/>
        <pt x="666" y="382" on="1"/>
        <pt x="666" y="432" on="0"/>
        <pt x="619" y="478" on="0"/>
        <pt x="571" y="478" on="1"/>
        <pt x="551" y="478" on="1"/>
        <pt x="533" y="476" on="0"/>
        <pt x="500" y="459" on="0"/>
        <pt x="473" y="430" on="0"/>
        <pt x="453" y="392" on="0"/>
        <pt x="449" y="371" on="1"/>
        <pt x="449" y="0" on="1"/>
        <pt x="381" y="0" on="1"/>
        <pt x="381" y="382" on="1"/>
        <pt x="381" y="432" on="0"/>
        <pt x="328" y="478" on="0"/>
        <pt x="280" y="478" on="1"/>
        <pt x="260" y="478" on="1"/>
        <pt x="225" y="475" on="0"/>
        <pt x="170" y="420" on="0"/>
        <pt x="158" y="371" on="1"/>
        <pt x="158" y="0" on="1"/>
        <pt x="90" y="0" on="1"/>
        <pt x="90" y="536" on="1"/>
        <pt x="148" y="536" on="1"/>
        <pt x="158" y="487" on="1"/>
        <pt x="179" y="510" on="0"/>
        <pt x="235" y="546" on="0"/>
        <pt x="277" y="546" on="1"/>
        <pt x="284" y="546" on="1"/>
        <pt x="322" y="546" on="0"/>
        <pt x="398" y="508" on="0"/>
        <pt x="418" y="462" on="1"/>
        <pt x="447" y="503" on="0"/>
        <pt x="520" y="546" on="0"/>
        <pt x="565" y="546" on="1"/>
      </contour>
    </TTGlyph>
    <TTGlyph name="minus" xMin="52" yMin="277" xMax="445" yMax="345">
      <contour>
        <pt x="445" y="345" on="1"/>
        <pt x="445" y="277" on="1"/>
        <pt x="52" y="277" on="1"/>
        <pt x="52" y="345" on="1"/>
      </contour>
    </TTGlyph>
    <TTGlyph name="multiply" xMin="97" yMin="106" xMax="473" yMax="516">
      <contour>
        <pt x="149" y="106" on="1"/>
        <pt x="97" y="153" on="1"/>
        <pt x="238" y="311" on="1"/>
        <pt x="97" y="470" on="1"/>
        <pt x="149" y="516" on="1"/>
        <pt x="285" y="364" on="1"/>
        <pt x="421" y="516" on="1"/>
        <pt x="473" y="470" on="1"/>
        <pt x="332" y="311" on="1"/>
        <pt x="473" y="153" on="1"/>
        <pt x="421" y="106" on="1"/>
        <pt x="285" y="258" on="1"/>
      </contour>
    </TTGlyph>
    <TTGlyph name="n" xMin="90" yMin="0" xMax="439" yMax="546">
      <contour>
        <pt x="371" y="390" on="1"/>
        <pt x="371" y="437" on="0"/>
        <pt x="334" y="478" on="0"/>
        <pt x="280" y="478" on="1"/>
        <pt x="263" y="478" on="1"/>
        <pt x="247" y="478" on="0"/>
        <pt x="214" y="465" on="0"/>
        <pt x="186" y="443" on="0"/>
        <pt x="164" y="411" on="0"/>
        <pt x="158" y="393" on="1"/>
        <pt x="158" y="0" on="1"/>
        <pt x="90" y="0" on="1"/>
        <pt x="90" y="536" on="1"/>
        <pt x="148" y="536" on="1"/>
        <pt x="158" y="491" on="1"/>
        <pt x="180" y="517" on="0"/>
        <pt x="238" y="546" on="0"/>
        <pt x="276" y="546" on="1"/>
        <pt x="282" y="546" on="1"/>
        <pt x="314" y="546" on="0"/>
        <pt x="371" y="529" on="0"/>
        <pt x="414" y="495" on="0"/>
        <pt x="439" y="445" on="0"/>
        <pt x="439" y="412" on="1"/>
        <pt x="439" y="0" on="1"/>
        <pt x="371" y="0" on="1"/>
      </contour>
    </TTGlyph>
    <TTGlyph name="nine" xMin="69" yMin="-10" xMax="410" yMax="725">
      <contour>
        <pt x="204" y="-10" on="1"/>
        <pt x="225" y="63" on="0"/>
        <pt x="299" y="265" on="0"/>
        <pt x="304" y="282" on="1"/>
        <pt x="284" y="277" on="0"/>
        <pt x="254" y="274" on="0"/>
        <pt x="239" y="274" on="1"/>
        <pt x="159" y="274" on="0"/>
        <pt x="69" y="350" on="0"/>
        <pt x="69" y="418" on="1"/>
        <pt x="69" y="580" on="1"/>
        <pt x="69" y="612" on="0"/>
        <pt x="87" y="663" on="0"/>
        <pt x="106" y="680" on="1"/>
        <pt x="128" y="701" on="0"/>
        <pt x="195" y="725" on="0"/>
        <pt x="239" y="725" on="1"/>
        <pt x="283" y="725" on="0"/>
        <pt x="353" y="701" on="0"/>
        <pt x="374" y="680" on="1"/>
        <pt x="410" y="644" on="0"/>
        <pt x="410" y="580" on="1"/>
        <pt x="410" y="438" on="1"/>
        <pt x="410" y="415" on="0"/>
        <pt x="407" y="375" on="0"/>
        <pt x="399" y="353" on="1"/>
        <pt x="277" y="-10" on="1"/>
      </contour>
      <contour>
        <pt x="239" y="657" on="1"/>
        <pt x="182" y="657" on="0"/>
        <pt x="138" y="612" on="0"/>
        <pt x="137" y="555" on="1"/>
        <pt x="137" y="444" on="1"/>
        <pt x="137" y="406" on="0"/>
        <pt x="155" y="364" on="0"/>
        <pt x="185" y="345" on="0"/>
        <pt x="221" y="342" on="0"/>
        <pt x="239" y="342" on="1"/>
        <pt x="246" y="342" on="1"/>
        <pt x="264" y="342" on="0"/>
        <pt x="298" y="347" on="0"/>
        <pt x="312" y="356" on="1"/>
        <pt x="327" y="369" on="0"/>
        <pt x="341" y="411" on="0"/>
        <pt x="341" y="444" on="1"/>
        <pt x="341" y="555" on="1"/>
        <pt x="341" y="612" on="0"/>
        <pt x="296" y="657" on="0"/>
      </contour>
    </TTGlyph>
    <TTGlyph name="numbersign" xMin="62" yMin="0" xMax="594" yMax="714">
      <contour>
        <pt x="594" y="532" on="1"/>
        <pt x="594" y="467" on="1"/>
        <pt x="485" y="467" on="1"/>
        <pt x="437" y="284" on="1"/>
        <pt x="540" y="284" on="1"/>
        <pt x="540" y="219" on="1"/>
        <pt x="419" y="219" on="1"/>
        <pt x="361" y="0" on="1"/>
        <pt x="295" y="0" on="1"/>
        <pt x="353" y="219" on="1"/>
        <pt x="225" y="219" on="1"/>
        <pt x="167" y="0" on="1"/>
        <pt x="101" y="0" on="1"/>
        <pt x="159" y="219" on="1"/>
        <pt x="62" y="219" on="1"/>
        <pt x="62" y="284" on="1"/>
        <pt x="176" y="284" on="1"/>
        <pt x="224" y="467" on="1"/>
        <pt x="116" y="467" on="1"/>
        <pt x="116" y="532" on="1"/>
        <pt x="241" y="532" on="1"/>
        <pt x="290" y="714" on="1"/>
        <pt x="357" y="714" on="1"/>
        <pt x="308" y="532" on="1"/>
        <pt x="435" y="532" on="1"/>
        <pt x="484" y="714" on="1"/>
        <pt x="551" y="714" on="1"/>
        <pt x="502" y="532" on="1"/>
      </contour>
      <contour>
        <pt x="243" y="284" on="1"/>
        <pt x="370" y="284" on="1"/>
        <pt x="418" y="467" on="1"/>
        <pt x="291" y="467" on="1"/>
      </contour>
    </TTGlyph>
    <TTGlyph name="o" xMin="65" yMin="-10" xMax="433" yMax="546">
      <contour>
        <pt x="254" y="546" on="1"/>
        <pt x="295" y="546" on="0"/>
        <pt x="361" y="524" on="0"/>
        <pt x="408" y="485" on="0"/>
        <pt x="433" y="431" on="0"/>
        <pt x="433" y="400" on="1"/>
        <pt x="433" y="137" on="1"/>
        <pt x="433" y="65" on="0"/>
        <pt x="334" y="-10" on="0"/>
        <pt x="254" y="-10" on="1"/>
        <pt x="247" y="-10" on="1"/>
        <pt x="204" y="-10" on="0"/>
        <pt x="137" y="12" on="0"/>
        <pt x="90" y="52" on="0"/>
        <pt x="65" y="105" on="0"/>
        <pt x="65" y="137" on="1"/>
        <pt x="65" y="400" on="1"/>
        <pt x="65" y="431" on="0"/>
        <pt x="90" y="485" on="0"/>
        <pt x="137" y="524" on="0"/>
        <pt x="204" y="546" on="0"/>
        <pt x="247" y="546" on="1"/>
      </contour>
      <contour>
        <pt x="364" y="385" on="1"/>
        <pt x="364" y="432" on="0"/>
        <pt x="314" y="478" on="0"/>
        <pt x="250" y="478" on="1"/>
        <pt x="215" y="478" on="0"/>
        <pt x="170" y="464" on="0"/>
        <pt x="144" y="439" on="0"/>
        <pt x="133" y="403" on="0"/>
        <pt x="133" y="381" on="1"/>
        <pt x="133" y="156" on="1"/>
        <pt x="133" y="134" on="0"/>
        <pt x="144" y="98" on="0"/>
        <pt x="170" y="73" on="0"/>
        <pt x="215" y="59" on="0"/>
        <pt x="250" y="59" on="1"/>
        <pt x="314" y="59" on="0"/>
        <pt x="364" y="105" on="0"/>
        <pt x="364" y="151" on="1"/>
      </contour>
    </TTGlyph>
    <TTGlyph name="one" xMin="94" yMin="0" xMax="215" yMax="714">
      <contour>
        <pt x="215" y="714" on="1"/>
        <pt x="215" y="0" on="1"/>
        <pt x="147" y="0" on="1"/>
        <pt x="147" y="646" on="1"/>
        <pt x="94" y="646" on="1"/>
        <pt x="94" y="714" on="1"/>
      </contour>
    </TTGlyph>
    <TTGlyph name="overscore.001" xMin="-115" yMin="600" xMax="85" yMax="666">
      <contour>
        <pt x="85" y="666" on="1"/>
        <pt x="85" y="600" on="1"/>
        <pt x="-115" y="600" on="1"/>
        <pt x="-115" y="666" on="1"/>
      </contour>
    </TTGlyph>
    <TTGlyph name="p" xMin="90" yMin="-190" xMax="443" yMax="546">
      <contour>
        <pt x="291" y="546" on="1"/>
        <pt x="361" y="543" on="0"/>
        <pt x="443" y="475" on="0"/>
        <pt x="443" y="406" on="1"/>
        <pt x="443" y="131" on="1"/>
        <pt x="443" y="62" on="0"/>
        <pt x="361" y="-7" on="0"/>
        <pt x="291" y="-10" on="1"/>
        <pt x="285" y="-10" on="1"/>
        <pt x="247" y="-10" on="0"/>
        <pt x="175" y="28" on="0"/>
        <pt x="158" y="59" on="1"/>
        <pt x="158" y="-190" on="1"/>
        <pt x="90" y="-190" on="1"/>
        <pt x="90" y="536" on="1"/>
        <pt x="148" y="536" on="1"/>
        <pt x="158" y="494" on="1"/>
        <pt x="181" y="518" on="0"/>
        <pt x="247" y="546" on="0"/>
        <pt x="285" y="546" on="1"/>
      </contour>
      <contour>
        <pt x="375" y="386" on="1"/>
        <pt x="375" y="435" on="0"/>
        <pt x="328" y="478" on="0"/>
        <pt x="280" y="478" on="1"/>
        <pt x="262" y="478" on="1"/>
        <pt x="228" y="478" on="0"/>
        <pt x="175" y="440" on="0"/>
        <pt x="158" y="397" on="1"/>
        <pt x="158" y="163" on="1"/>
        <pt x="163" y="145" on="0"/>
        <pt x="184" y="108" on="0"/>
        <pt x="211" y="78" on="0"/>
        <pt x="244" y="58" on="0"/>
        <pt x="262" y="58" on="1"/>
        <pt x="280" y="58" on="1"/>
        <pt x="328" y="58" on="0"/>
        <pt x="375" y="103" on="0"/>
        <pt x="375" y="142" on="1"/>
      </contour>
    </TTGlyph>
    <TTGlyph name="parenleft" xMin="92" yMin="-58" xMax="228" yMax="745">
      <contour>
        <pt x="159" y="105" on="1"/>
        <pt x="159" y="87" on="0"/>
        <pt x="165" y="60" on="0"/>
        <pt x="181" y="36" on="0"/>
        <pt x="207" y="11" on="0"/>
        <pt x="228" y="-4" on="1"/>
        <pt x="186" y="-58" on="1"/>
        <pt x="163" y="-41" on="0"/>
        <pt x="128" y="-7" on="0"/>
        <pt x="104" y="30" on="0"/>
        <pt x="92" y="76" on="0"/>
        <pt x="92" y="105" on="1"/>
        <pt x="92" y="586" on="1"/>
        <pt x="92" y="622" on="0"/>
        <pt x="121" y="680" on="0"/>
        <pt x="156" y="721" on="0"/>
        <pt x="187" y="743" on="0"/>
        <pt x="189" y="745" on="1"/>
        <pt x="225" y="686" on="1"/>
        <pt x="224" y="686" on="0"/>
        <pt x="203" y="671" on="0"/>
        <pt x="179" y="644" on="0"/>
        <pt x="159" y="608" on="0"/>
        <pt x="159" y="586" on="1"/>
      </contour>
    </TTGlyph>
    <TTGlyph name="parenright" xMin="62" yMin="-58" xMax="198" yMax="745">
      <contour>
        <pt x="131" y="105" on="1"/>
        <pt x="131" y="586" on="1"/>
        <pt x="131" y="608" on="0"/>
        <pt x="111" y="644" on="0"/>
        <pt x="87" y="671" on="0"/>
        <pt x="66" y="686" on="0"/>
        <pt x="65" y="686" on="1"/>
        <pt x="101" y="745" on="1"/>
        <pt x="103" y="743" on="0"/>
        <pt x="134" y="721" on="0"/>
        <pt x="169" y="680" on="0"/>
        <pt x="198" y="622" on="0"/>
        <pt x="198" y="586" on="1"/>
        <pt x="198" y="105" on="1"/>
        <pt x="198" y="76" on="0"/>
        <pt x="186" y="30" on="0"/>
        <pt x="162" y="-7" on="0"/>
        <pt x="127" y="-41" on="0"/>
        <pt x="104" y="-58" on="1"/>
        <pt x="62" y="-4" on="1"/>
        <pt x="83" y="11" on="0"/>
        <pt x="109" y="36" on="0"/>
        <pt x="125" y="60" on="0"/>
        <pt x="131" y="87" on="0"/>
      </contour>
    </TTGlyph>
    <TTGlyph name="percent" xMin="65" yMin="-10" xMax="675" yMax="724">
      <contour>
        <pt x="675" y="84" on="1"/>
        <pt x="675" y="36" on="0"/>
        <pt x="613" y="-8" on="0"/>
        <pt x="559" y="-10" on="1"/>
        <pt x="555" y="-10" on="1"/>
        <pt x="503" y="-8" on="0"/>
        <pt x="439" y="36" on="0"/>
        <pt x="439" y="84" on="1"/>
        <pt x="440" y="137" on="0"/>
        <pt x="440" y="221" on="0"/>
        <pt x="439" y="274" on="1"/>
        <pt x="439" y="322" on="0"/>
        <pt x="503" y="368" on="0"/>
        <pt x="555" y="368" on="1"/>
        <pt x="559" y="368" on="1"/>
        <pt x="613" y="368" on="0"/>
        <pt x="675" y="322" on="0"/>
        <pt x="675" y="274" on="1"/>
      </contour>
      <contour>
        <pt x="297" y="441" on="1"/>
        <pt x="299" y="391" on="0"/>
        <pt x="236" y="347" on="0"/>
        <pt x="184" y="345" on="1"/>
        <pt x="178" y="345" on="1"/>
        <pt x="126" y="347" on="0"/>
        <pt x="65" y="391" on="0"/>
        <pt x="65" y="441" on="1"/>
        <pt x="65" y="629" on="1"/>
        <pt x="65" y="677" on="0"/>
        <pt x="126" y="722" on="0"/>
        <pt x="178" y="724" on="1"/>
        <pt x="184" y="724" on="1"/>
        <pt x="236" y="722" on="0"/>
        <pt x="299" y="677" on="0"/>
        <pt x="297" y="629" on="1"/>
      </contour>
      <contour>
        <pt x="476" y="714" on="1"/>
        <pt x="545" y="714" on="1"/>
        <pt x="261" y="0" on="1"/>
        <pt x="190" y="0" on="1"/>
      </contour>
      <contour>
        <pt x="236" y="463" on="1"/>
        <pt x="236" y="607" on="1"/>
        <pt x="236" y="625" on="0"/>
        <pt x="232" y="647" on="0"/>
        <pt x="221" y="658" on="0"/>
        <pt x="200" y="662" on="0"/>
        <pt x="182" y="662" on="1"/>
        <pt x="164" y="662" on="0"/>
        <pt x="142" y="658" on="0"/>
        <pt x="131" y="647" on="0"/>
        <pt x="127" y="625" on="0"/>
        <pt x="126" y="607" on="1"/>
        <pt x="126" y="463" on="1"/>
        <pt x="127" y="445" on="0"/>
        <pt x="131" y="423" on="0"/>
        <pt x="142" y="411" on="0"/>
        <pt x="164" y="408" on="0"/>
        <pt x="182" y="408" on="1"/>
        <pt x="200" y="408" on="0"/>
        <pt x="221" y="411" on="0"/>
        <pt x="232" y="423" on="0"/>
        <pt x="236" y="445" on="0"/>
      </contour>
      <contour>
        <pt x="611" y="106" on="1"/>
        <pt x="612" y="130" on="0"/>
        <pt x="612" y="164" on="0"/>
        <pt x="612" y="195" on="0"/>
        <pt x="612" y="228" on="0"/>
        <pt x="611" y="252" on="1"/>
        <pt x="611" y="270" on="0"/>
        <pt x="608" y="291" on="0"/>
        <pt x="596" y="303" on="0"/>
        <pt x="575" y="307" on="0"/>
        <pt x="557" y="307" on="1"/>
        <pt x="540" y="307" on="0"/>
        <pt x="519" y="303" on="0"/>
        <pt x="507" y="291" on="0"/>
        <pt x="503" y="270" on="0"/>
        <pt x="503" y="252" on="1"/>
        <pt x="503" y="106" on="1"/>
        <pt x="503" y="89" on="0"/>
        <pt x="507" y="68" on="0"/>
        <pt x="519" y="57" on="0"/>
        <pt x="540" y="54" on="0"/>
        <pt x="557" y="54" on="1"/>
        <pt x="575" y="54" on="0"/>
        <pt x="596" y="57" on="0"/>
        <pt x="608" y="68" on="0"/>
        <pt x="611" y="89" on="0"/>
      </contour>
    </TTGlyph>
    <TTGlyph name="period" xMin="79" yMin="0" xMax="152" yMax="109">
      <contour>
        <pt x="79" y="0" on="1"/>
        <pt x="79" y="109" on="1"/>
        <pt x="152" y="109" on="1"/>
        <pt x="152" y="0" on="1"/>
      </contour>
    </TTGlyph>
    <TTGlyph name="pi" xMin="19" yMin="-10" xMax="620" yMax="536">
      <contour>
        <pt x="19" y="468" on="1"/>
        <pt x="19" y="536" on="1"/>
        <pt x="620" y="536" on="1"/>
        <pt x="620" y="468" on="1"/>
        <pt x="488" y="468" on="1"/>
        <pt x="488" y="126" on="1"/>
        <pt x="488" y="90" on="0"/>
        <pt x="516" y="58" on="0"/>
        <pt x="552" y="58" on="1"/>
        <pt x="578" y="58" on="1"/>
        <pt x="578" y="-10" on="1"/>
        <pt x="563" y="-10" on="1"/>
        <pt x="487" y="-10" on="0"/>
        <pt x="421" y="56" on="0"/>
        <pt x="421" y="128" on="1"/>
        <pt x="421" y="468" on="1"/>
        <pt x="207" y="468" on="1"/>
        <pt x="207" y="0" on="1"/>
        <pt x="139" y="0" on="1"/>
        <pt x="139" y="468" on="1"/>
      </contour>
    </TTGlyph>
    <TTGlyph name="plus" xMin="52" yMin="95" xMax="442" yMax="526">
      <contour>
        <pt x="442" y="277" on="1"/>
        <pt x="281" y="277" on="1"/>
        <pt x="281" y="95" on="1"/>
        <pt x="213" y="95" on="1"/>
        <pt x="213" y="277" on="1"/>
        <pt x="52" y="277" on="1"/>
        <pt x="52" y="345" on="1"/>
        <pt x="213" y="345" on="1"/>
        <pt x="213" y="526" on="1"/>
        <pt x="281" y="526" on="1"/>
        <pt x="281" y="345" on="1"/>
        <pt x="442" y="345" on="1"/>
      </contour>
    </TTGlyph>
    <TTGlyph name="q" xMin="64" yMin="-190" xMax="417" yMax="546">
      <contour>
        <pt x="216" y="546" on="1"/>
        <pt x="222" y="546" on="1"/>
        <pt x="260" y="546" on="0"/>
        <pt x="326" y="518" on="0"/>
        <pt x="349" y="494" on="1"/>
        <pt x="359" y="536" on="1"/>
        <pt x="417" y="536" on="1"/>
        <pt x="417" y="-190" on="1"/>
        <pt x="349" y="-190" on="1"/>
        <pt x="349" y="59" on="1"/>
        <pt x="332" y="28" on="0"/>
        <pt x="260" y="-10" on="0"/>
        <pt x="222" y="-10" on="1"/>
        <pt x="216" y="-10" on="1"/>
        <pt x="146" y="-7" on="0"/>
        <pt x="64" y="62" on="0"/>
        <pt x="64" y="131" on="1"/>
        <pt x="64" y="406" on="1"/>
        <pt x="64" y="475" on="0"/>
        <pt x="146" y="543" on="0"/>
      </contour>
      <contour>
        <pt x="132" y="142" on="1"/>
        <pt x="132" y="103" on="0"/>
        <pt x="179" y="58" on="0"/>
        <pt x="227" y="58" on="1"/>
        <pt x="245" y="58" on="1"/>
        <pt x="263" y="58" on="0"/>
        <pt x="296" y="78" on="0"/>
        <pt x="323" y="108" on="0"/>
        <pt x="344" y="145" on="0"/>
        <pt x="349" y="163" on="1"/>
        <pt x="349" y="397" on="1"/>
        <pt x="332" y="440" on="0"/>
        <pt x="279" y="478" on="0"/>
        <pt x="245" y="478" on="1"/>
        <pt x="227" y="478" on="1"/>
        <pt x="179" y="478" on="0"/>
        <pt x="132" y="435" on="0"/>
        <pt x="132" y="386" on="1"/>
      </contour>
    </TTGlyph>
    <TTGlyph name="r" xMin="89" yMin="0" xMax="396" yMax="546">
      <contour>
        <pt x="260" y="478" on="1"/>
        <pt x="225" y="478" on="0"/>
        <pt x="168" y="427" on="0"/>
        <pt x="157" y="393" on="1"/>
        <pt x="157" y="0" on="1"/>
        <pt x="89" y="0" on="1"/>
        <pt x="89" y="540" on="1"/>
        <pt x="151" y="540" on="1"/>
        <pt x="157" y="498" on="1"/>
        <pt x="180" y="523" on="0"/>
        <pt x="246" y="546" on="0"/>
        <pt x="284" y="546" on="1"/>
        <pt x="291" y="546" on="1"/>
        <pt x="327" y="546" on="0"/>
        <pt x="377" y="525" on="0"/>
        <pt x="396" y="505" on="1"/>
        <pt x="356" y="456" on="1"/>
        <pt x="341" y="468" on="0"/>
        <pt x="301" y="478" on="0"/>
        <pt x="277" y="478" on="1"/>
      </contour>
    </TTGlyph>
    <TTGlyph name="radical" xMin="10" yMin="0" xMax="766" yMax="725">
      <contour>
        <pt x="339" y="113" on="1"/>
        <pt x="682" y="725" on="1"/>
        <pt x="766" y="725" on="1"/>
        <pt x="363" y="0" on="1"/>
        <pt x="317" y="0" on="1"/>
        <pt x="120" y="394" on="1"/>
        <pt x="119" y="393" on="0"/>
        <pt x="94" y="381" on="0"/>
        <pt x="80" y="373" on="1"/>
        <pt x="42" y="353" on="1"/>
        <pt x="10" y="409" on="1"/>
        <pt x="154" y="483" on="1"/>
      </contour>
    </TTGlyph>
    <TTGlyph name="s" xMin="45" yMin="-10" xMax="401" yMax="546">
      <contour>
        <pt x="227" y="546" on="1"/>
        <pt x="302" y="546" on="0"/>
        <pt x="393" y="470" on="0"/>
        <pt x="393" y="402" on="1"/>
        <pt x="326" y="402" on="1"/>
        <pt x="326" y="425" on="0"/>
        <pt x="310" y="454" on="0"/>
        <pt x="282" y="471" on="0"/>
        <pt x="246" y="478" on="0"/>
        <pt x="225" y="478" on="1"/>
        <pt x="192" y="478" on="0"/>
        <pt x="150" y="465" on="0"/>
        <pt x="126" y="441" on="0"/>
        <pt x="117" y="408" on="0"/>
        <pt x="117" y="388" on="1"/>
        <pt x="117" y="371" on="0"/>
        <pt x="133" y="342" on="0"/>
        <pt x="159" y="320" on="0"/>
        <pt x="193" y="305" on="0"/>
        <pt x="211" y="303" on="1"/>
        <pt x="223" y="301" on="0"/>
        <pt x="245" y="298" on="0"/>
        <pt x="257" y="297" on="1"/>
        <pt x="295" y="292" on="0"/>
        <pt x="349" y="272" on="0"/>
        <pt x="383" y="240" on="0"/>
        <pt x="400" y="192" on="0"/>
        <pt x="401" y="159" on="1"/>
        <pt x="401" y="136" on="1"/>
        <pt x="401" y="104" on="0"/>
        <pt x="377" y="51" on="0"/>
        <pt x="332" y="12" on="0"/>
        <pt x="269" y="-10" on="0"/>
        <pt x="229" y="-10" on="1"/>
        <pt x="222" y="-10" on="1"/>
        <pt x="137" y="-10" on="0"/>
        <pt x="45" y="64" on="0"/>
        <pt x="45" y="133" on="1"/>
        <pt x="45" y="134" on="1"/>
        <pt x="113" y="134" on="1"/>
        <pt x="113" y="133" on="1"/>
        <pt x="113" y="110" on="0"/>
        <pt x="130" y="81" on="0"/>
        <pt x="161" y="65" on="0"/>
        <pt x="203" y="59" on="0"/>
        <pt x="227" y="59" on="1"/>
        <pt x="288" y="59" on="0"/>
        <pt x="333" y="108" on="0"/>
        <pt x="333" y="149" on="1"/>
        <pt x="333" y="197" on="0"/>
        <pt x="283" y="234" on="0"/>
        <pt x="240" y="240" on="1"/>
        <pt x="198" y="245" on="1"/>
        <pt x="129" y="254" on="0"/>
        <pt x="50" y="328" on="0"/>
        <pt x="50" y="384" on="1"/>
        <pt x="50" y="399" on="1"/>
        <pt x="50" y="468" on="0"/>
        <pt x="139" y="546" on="0"/>
        <pt x="220" y="546" on="1"/>
      </contour>
    </TTGlyph>
    <TTGlyph name="seven" xMin="49" yMin="0" xMax="431" yMax="714">
      <contour>
        <pt x="431" y="714" on="1"/>
        <pt x="431" y="694" on="1"/>
        <pt x="196" y="0" on="1"/>
        <pt x="119" y="0" on="1"/>
        <pt x="337" y="646" on="1"/>
        <pt x="49" y="646" on="1"/>
        <pt x="49" y="714" on="1"/>
      </contour>
    </TTGlyph>
    <TTGlyph name="six" xMin="70" yMin="-10" xMax="409" yMax="725">
      <contour>
        <pt x="240" y="-10" on="1"/>
        <pt x="148" y="-10" on="0"/>
        <pt x="106" y="34" on="1"/>
        <pt x="70" y="70" on="0"/>
        <pt x="70" y="132" on="1"/>
        <pt x="70" y="272" on="1"/>
        <pt x="70" y="292" on="0"/>
        <pt x="72" y="334" on="0"/>
        <pt x="80" y="355" on="1"/>
        <pt x="198" y="725" on="1"/>
        <pt x="269" y="725" on="1"/>
        <pt x="242" y="633" on="0"/>
        <pt x="195" y="488" on="0"/>
        <pt x="173" y="418" on="1"/>
        <pt x="190" y="427" on="0"/>
        <pt x="226" y="431" on="0"/>
        <pt x="240" y="431" on="1"/>
        <pt x="319" y="431" on="0"/>
        <pt x="409" y="358" on="0"/>
        <pt x="409" y="292" on="1"/>
        <pt x="409" y="132" on="1"/>
        <pt x="409" y="70" on="0"/>
        <pt x="373" y="34" on="1"/>
        <pt x="350" y="13" on="0"/>
        <pt x="283" y="-10" on="0"/>
      </contour>
      <contour>
        <pt x="236" y="365" on="1"/>
        <pt x="219" y="365" on="0"/>
        <pt x="184" y="362" on="0"/>
        <pt x="156" y="343" on="0"/>
        <pt x="138" y="301" on="0"/>
        <pt x="138" y="263" on="1"/>
        <pt x="138" y="158" on="1"/>
        <pt x="138" y="102" on="0"/>
        <pt x="183" y="58" on="0"/>
        <pt x="240" y="58" on="1"/>
        <pt x="268" y="58" on="0"/>
        <pt x="306" y="68" on="0"/>
        <pt x="330" y="92" on="0"/>
        <pt x="340" y="130" on="0"/>
        <pt x="341" y="158" on="1"/>
        <pt x="341" y="263" on="1"/>
        <pt x="341" y="300" on="0"/>
        <pt x="323" y="342" on="0"/>
        <pt x="294" y="361" on="0"/>
        <pt x="258" y="365" on="0"/>
        <pt x="240" y="365" on="1"/>
      </contour>
    </TTGlyph>
    <TTGlyph name="slash" xMin="0" yMin="0" xMax="256" yMax="714">
      <contour>
        <pt x="66" y="0" on="1"/>
        <pt x="0" y="0" on="1"/>
        <pt x="189" y="714" on="1"/>
        <pt x="256" y="714" on="1"/>
      </contour>
    </TTGlyph>
    <TTGlyph name="t" xMin="43" yMin="-10" xMax="262" yMax="646">
      <contour>
        <pt x="252" y="529" on="1"/>
        <pt x="252" y="461" on="1"/>
        <pt x="171" y="461" on="1"/>
        <pt x="171" y="123" on="1"/>
        <pt x="171" y="86" on="0"/>
        <pt x="199" y="57" on="0"/>
        <pt x="237" y="57" on="1"/>
        <pt x="262" y="57" on="1"/>
        <pt x="262" y="-10" on="1"/>
        <pt x="239" y="-10" on="1"/>
        <pt x="170" y="-10" on="0"/>
        <pt x="103" y="54" on="0"/>
        <pt x="103" y="126" on="1"/>
        <pt x="103" y="461" on="1"/>
        <pt x="43" y="461" on="1"/>
        <pt x="43" y="529" on="1"/>
        <pt x="103" y="529" on="1"/>
        <pt x="103" y="646" on="1"/>
        <pt x="171" y="646" on="1"/>
        <pt x="171" y="529" on="1"/>
      </contour>
    </TTGlyph>
    <TTGlyph name="three" xMin="69" yMin="-10" xMax="412" yMax="725">
      <contour>
        <pt x="69" y="130" on="1"/>
        <pt x="69" y="191" on="1"/>
        <pt x="137" y="191" on="1"/>
        <pt x="137" y="130" on="1"/>
        <pt x="137" y="89" on="0"/>
        <pt x="183" y="56" on="0"/>
        <pt x="239" y="58" on="1"/>
        <pt x="295" y="56" on="0"/>
        <pt x="341" y="89" on="0"/>
        <pt x="341" y="130" on="1"/>
        <pt x="341" y="264" on="1"/>
        <pt x="341" y="282" on="0"/>
        <pt x="323" y="309" on="0"/>
        <pt x="294" y="327" on="0"/>
        <pt x="258" y="336" on="0"/>
        <pt x="239" y="336" on="1"/>
        <pt x="179" y="336" on="1"/>
        <pt x="179" y="404" on="1"/>
        <pt x="239" y="404" on="1"/>
        <pt x="258" y="404" on="0"/>
        <pt x="294" y="414" on="0"/>
        <pt x="323" y="433" on="0"/>
        <pt x="341" y="460" on="0"/>
        <pt x="341" y="478" on="1"/>
        <pt x="341" y="585" on="1"/>
        <pt x="341" y="625" on="0"/>
        <pt x="295" y="660" on="0"/>
        <pt x="239" y="660" on="1"/>
        <pt x="183" y="660" on="0"/>
        <pt x="137" y="627" on="0"/>
        <pt x="137" y="585" on="1"/>
        <pt x="137" y="525" on="1"/>
        <pt x="69" y="525" on="1"/>
        <pt x="69" y="585" on="1"/>
        <pt x="69" y="655" on="0"/>
        <pt x="156" y="725" on="0"/>
        <pt x="239" y="725" on="1"/>
        <pt x="284" y="725" on="0"/>
        <pt x="352" y="705" on="0"/>
        <pt x="375" y="683" on="1"/>
        <pt x="412" y="647" on="0"/>
        <pt x="409" y="585" on="1"/>
        <pt x="409" y="505" on="1"/>
        <pt x="409" y="492" on="0"/>
        <pt x="407" y="457" on="0"/>
        <pt x="396" y="421" on="0"/>
        <pt x="371" y="387" on="0"/>
        <pt x="349" y="375" on="1"/>
        <pt x="347" y="373" on="0"/>
        <pt x="343" y="373" on="0"/>
        <pt x="341" y="371" on="1"/>
        <pt x="344" y="369" on="0"/>
        <pt x="347" y="368" on="0"/>
        <pt x="349" y="366" on="1"/>
        <pt x="371" y="354" on="0"/>
        <pt x="396" y="320" on="0"/>
        <pt x="407" y="284" on="0"/>
        <pt x="409" y="249" on="0"/>
        <pt x="409" y="236" on="1"/>
        <pt x="409" y="130" on="1"/>
        <pt x="412" y="69" on="0"/>
        <pt x="375" y="32" on="1"/>
        <pt x="330" y="-10" on="0"/>
        <pt x="239" y="-10" on="1"/>
        <pt x="156" y="-10" on="0"/>
        <pt x="69" y="61" on="0"/>
      </contour>
    </TTGlyph>
    <TTGlyph name="two" xMin="68" yMin="0" xMax="411" yMax="725">
      <contour>
        <pt x="70" y="0" on="1"/>
        <pt x="70" y="34" on="1"/>
        <pt x="88" y="68" on="0"/>
        <pt x="114" y="114" on="1"/>
        <pt x="136" y="153" on="0"/>
        <pt x="198" y="266" on="0"/>
        <pt x="237" y="339" on="1"/>
        <pt x="257" y="377" on="1"/>
        <pt x="280" y="419" on="0"/>
        <pt x="312" y="482" on="0"/>
        <pt x="333" y="529" on="0"/>
        <pt x="343" y="564" on="0"/>
        <pt x="343" y="581" on="1"/>
        <pt x="342" y="606" on="0"/>
        <pt x="321" y="636" on="0"/>
        <pt x="290" y="652" on="0"/>
        <pt x="255" y="657" on="0"/>
        <pt x="241" y="657" on="1"/>
        <pt x="204" y="657" on="0"/>
        <pt x="163" y="645" on="0"/>
        <pt x="143" y="621" on="0"/>
        <pt x="139" y="582" on="0"/>
        <pt x="139" y="555" on="1"/>
        <pt x="139" y="521" on="1"/>
        <pt x="70" y="521" on="1"/>
        <pt x="70" y="581" on="1"/>
        <pt x="68" y="614" on="0"/>
        <pt x="87" y="665" on="0"/>
        <pt x="105" y="683" on="1"/>
        <pt x="147" y="725" on="0"/>
        <pt x="241" y="725" on="1"/>
        <pt x="322" y="725" on="0"/>
        <pt x="411" y="650" on="0"/>
        <pt x="411" y="581" on="1"/>
        <pt x="411" y="552" on="0"/>
        <pt x="398" y="495" on="0"/>
        <pt x="385" y="471" on="1"/>
        <pt x="376" y="449" on="0"/>
        <pt x="360" y="419" on="0"/>
        <pt x="349" y="399" on="1"/>
        <pt x="341" y="382" on="0"/>
        <pt x="315" y="338" on="0"/>
        <pt x="295" y="305" on="1"/>
        <pt x="169" y="69" on="1"/>
        <pt x="411" y="69" on="1"/>
        <pt x="411" y="0" on="1"/>
      </contour>
    </TTGlyph>
    <TTGlyph name="u" xMin="85" yMin="-10" xMax="425" yMax="536">
      <contour>
        <pt x="154" y="146" on="1"/>
        <pt x="154" y="99" on="0"/>
        <pt x="191" y="58" on="0"/>
        <pt x="245" y="58" on="1"/>
        <pt x="262" y="58" on="1"/>
        <pt x="294" y="58" on="0"/>
        <pt x="346" y="106" on="0"/>
        <pt x="357" y="143" on="1"/>
        <pt x="357" y="536" on="1"/>
        <pt x="425" y="536" on="1"/>
        <pt x="425" y="0" on="1"/>
        <pt x="367" y="0" on="1"/>
        <pt x="357" y="45" on="1"/>
        <pt x="335" y="19" on="0"/>
        <pt x="277" y="-10" on="0"/>
        <pt x="239" y="-10" on="1"/>
        <pt x="233" y="-10" on="1"/>
        <pt x="203" y="-10" on="0"/>
        <pt x="148" y="8" on="0"/>
        <pt x="108" y="42" on="0"/>
        <pt x="85" y="92" on="0"/>
        <pt x="86" y="124" on="1"/>
        <pt x="86" y="536" on="1"/>
        <pt x="154" y="536" on="1"/>
      </contour>
    </TTGlyph>
    <TTGlyph name="uni00B2" xMin="30" yMin="409" xMax="248" yMax="853">
      <contour>
        <pt x="146" y="537" on="1"/>
        <pt x="141" y="529" on="0"/>
        <pt x="127" y="504" on="0"/>
        <pt x="114" y="482" on="0"/>
        <pt x="104" y="465" on="0"/>
        <pt x="104" y="465" on="1"/>
        <pt x="248" y="465" on="1"/>
        <pt x="248" y="409" on="1"/>
        <pt x="30" y="409" on="1"/>
        <pt x="30" y="455" on="1"/>
        <pt x="30" y="456" on="0"/>
        <pt x="42" y="476" on="0"/>
        <pt x="62" y="509" on="0"/>
        <pt x="86" y="550" on="0"/>
        <pt x="98" y="571" on="1"/>
        <pt x="127" y="621" on="0"/>
        <pt x="164" y="684" on="1"/>
        <pt x="172" y="698" on="0"/>
        <pt x="181" y="719" on="0"/>
        <pt x="184" y="731" on="1"/>
        <pt x="186" y="737" on="0"/>
        <pt x="188" y="753" on="0"/>
        <pt x="188" y="759" on="1"/>
        <pt x="188" y="784" on="0"/>
        <pt x="174" y="797" on="0"/>
        <pt x="144" y="797" on="1"/>
        <pt x="114" y="797" on="0"/>
        <pt x="98" y="784" on="0"/>
        <pt x="98" y="759" on="1"/>
        <pt x="98" y="731" on="1"/>
        <pt x="39" y="731" on="1"/>
        <pt x="39" y="766" on="1"/>
        <pt x="39" y="806" on="0"/>
        <pt x="92" y="852" on="0"/>
        <pt x="142" y="853" on="1"/>
        <pt x="146" y="853" on="1"/>
        <pt x="197" y="852" on="0"/>
        <pt x="248" y="809" on="0"/>
        <pt x="248" y="773" on="1"/>
        <pt x="248" y="767" on="0"/>
        <pt x="246" y="743" on="0"/>
        <pt x="245" y="735" on="1"/>
        <pt x="239" y="703" on="0"/>
        <pt x="222" y="670" on="1"/>
        <pt x="204" y="637" on="0"/>
        <pt x="166" y="570" on="0"/>
      </contour>
    </TTGlyph>
    <TTGlyph name="uni00B3" xMin="30" yMin="404" xMax="253" yMax="853">
      <contour>
        <pt x="30" y="542" on="1"/>
        <pt x="88" y="542" on="1"/>
        <pt x="88" y="497" on="1"/>
        <pt x="88" y="476" on="0"/>
        <pt x="112" y="461" on="0"/>
        <pt x="140" y="462" on="1"/>
        <pt x="169" y="461" on="0"/>
        <pt x="193" y="476" on="0"/>
        <pt x="193" y="497" on="1"/>
        <pt x="193" y="575" on="1"/>
        <pt x="193" y="592" on="0"/>
        <pt x="160" y="609" on="0"/>
        <pt x="140" y="609" on="1"/>
        <pt x="96" y="609" on="1"/>
        <pt x="96" y="666" on="1"/>
        <pt x="140" y="666" on="1"/>
        <pt x="160" y="666" on="0"/>
        <pt x="193" y="685" on="0"/>
        <pt x="193" y="702" on="1"/>
        <pt x="193" y="760" on="1"/>
        <pt x="193" y="780" on="0"/>
        <pt x="169" y="796" on="0"/>
        <pt x="140" y="796" on="1"/>
        <pt x="112" y="796" on="0"/>
        <pt x="88" y="780" on="0"/>
        <pt x="88" y="760" on="1"/>
        <pt x="88" y="721" on="1"/>
        <pt x="30" y="721" on="1"/>
        <pt x="30" y="760" on="1"/>
        <pt x="30" y="853" on="0"/>
        <pt x="140" y="853" on="1"/>
        <pt x="169" y="853" on="0"/>
        <pt x="212" y="840" on="0"/>
        <pt x="228" y="824" on="1"/>
        <pt x="253" y="799" on="0"/>
        <pt x="251" y="760" on="1"/>
        <pt x="251" y="718" on="1"/>
        <pt x="251" y="703" on="0"/>
        <pt x="239" y="656" on="0"/>
        <pt x="218" y="638" on="1"/>
        <pt x="230" y="629" on="0"/>
        <pt x="244" y="608" on="0"/>
        <pt x="250" y="586" on="0"/>
        <pt x="251" y="566" on="0"/>
        <pt x="251" y="558" on="1"/>
        <pt x="251" y="497" on="1"/>
        <pt x="252" y="456" on="0"/>
        <pt x="228" y="430" on="1"/>
        <pt x="197" y="404" on="0"/>
        <pt x="140" y="404" on="1"/>
        <pt x="30" y="404" on="0"/>
        <pt x="30" y="497" on="1"/>
      </contour>
    </TTGlyph>
    <TTGlyph name="uni00B9" xMin="142" yMin="403" xMax="239" yMax="805">
      <contour>
        <pt x="142" y="805" on="1"/>
        <pt x="239" y="805" on="1"/>
        <pt x="239" y="403" on="1"/>
        <pt x="179" y="403" on="1"/>
        <pt x="179" y="746" on="1"/>
        <pt x="142" y="746" on="1"/>
      </contour>
    </TTGlyph>
    <TTGlyph name="uni02E3" xMin="15" yMin="403" xMax="272" yMax="725">
      <contour>
        <pt x="178" y="564" on="1"/>
        <pt x="194" y="536" on="0"/>
        <pt x="227" y="479" on="0"/>
        <pt x="241" y="456" on="1"/>
        <pt x="257" y="429" on="0"/>
        <pt x="272" y="403" on="1"/>
        <pt x="200" y="403" on="1"/>
        <pt x="143" y="506" on="1"/>
        <pt x="87" y="403" on="1"/>
        <pt x="16" y="403" on="1"/>
        <pt x="31" y="429" on="0"/>
        <pt x="47" y="456" on="1"/>
        <pt x="61" y="479" on="0"/>
        <pt x="94" y="536" on="0"/>
        <pt x="111" y="564" on="1"/>
        <pt x="15" y="725" on="1"/>
        <pt x="84" y="725" on="1"/>
        <pt x="93" y="706" on="0"/>
        <pt x="104" y="688" on="1"/>
        <pt x="112" y="672" on="0"/>
        <pt x="133" y="636" on="0"/>
        <pt x="143" y="619" on="1"/>
        <pt x="153" y="636" on="0"/>
        <pt x="174" y="672" on="0"/>
        <pt x="182" y="688" on="1"/>
        <pt x="192" y="706" on="0"/>
        <pt x="200" y="725" on="1"/>
        <pt x="272" y="725" on="1"/>
      </contour>
    </TTGlyph>
    <TTGlyph name="uni2082" xMin="30" yMin="0" xMax="248" yMax="444">
      <contour>
        <pt x="146" y="128" on="1"/>
        <pt x="141" y="120" on="0"/>
        <pt x="127" y="95" on="0"/>
        <pt x="114" y="73" on="0"/>
        <pt x="104" y="56" on="0"/>
        <pt x="104" y="56" on="1"/>
        <pt x="248" y="56" on="1"/>
        <pt x="248" y="0" on="1"/>
        <pt x="30" y="0" on="1"/>
        <pt x="30" y="46" on="1"/>
        <pt x="30" y="47" on="0"/>
        <pt x="42" y="67" on="0"/>
        <pt x="62" y="100" on="0"/>
        <pt x="86" y="141" on="0"/>
        <pt x="98" y="162" on="1"/>
        <pt x="127" y="212" on="0"/>
        <pt x="164" y="275" on="1"/>
        <pt x="172" y="289" on="0"/>
        <pt x="181" y="310" on="0"/>
        <pt x="184" y="322" on="1"/>
        <pt x="186" y="328" on="0"/>
        <pt x="188" y="344" on="0"/>
        <pt x="188" y="350" on="1"/>
        <pt x="188" y="375" on="0"/>
        <pt x="174" y="388" on="0"/>
        <pt x="144" y="388" on="1"/>
        <pt x="114" y="388" on="0"/>
        <pt x="98" y="375" on="0"/>
        <pt x="98" y="350" on="1"/>
        <pt x="98" y="322" on="1"/>
        <pt x="39" y="322" on="1"/>
        <pt x="39" y="357" on="1"/>
        <pt x="39" y="397" on="0"/>
        <pt x="92" y="443" on="0"/>
        <pt x="142" y="444" on="1"/>
        <pt x="146" y="444" on="1"/>
        <pt x="197" y="443" on="0"/>
        <pt x="248" y="400" on="0"/>
        <pt x="248" y="364" on="1"/>
        <pt x="248" y="358" on="0"/>
        <pt x="246" y="334" on="0"/>
        <pt x="245" y="326" on="1"/>
        <pt x="239" y="294" on="0"/>
        <pt x="222" y="261" on="1"/>
        <pt x="204" y="228" on="0"/>
        <pt x="166" y="161" on="0"/>
      </contour>
    </TTGlyph>
    <TTGlyph name="uni2103" xMin="91" yMin="-10" xMax="749" yMax="724">
      <contour>
        <pt x="189" y="496" on="1"/>
        <pt x="210" y="496" on="0"/>
        <pt x="246" y="511" on="0"/>
        <pt x="273" y="538" on="0"/>
        <pt x="288" y="573" on="0"/>
        <pt x="288" y="593" on="1"/>
        <pt x="288" y="613" on="0"/>
        <pt x="273" y="650" on="0"/>
        <pt x="246" y="677" on="0"/>
        <pt x="210" y="693" on="0"/>
        <pt x="189" y="693" on="1"/>
        <pt x="169" y="693" on="0"/>
        <pt x="133" y="677" on="0"/>
        <pt x="106" y="650" on="0"/>
        <pt x="91" y="613" on="0"/>
        <pt x="91" y="593" on="1"/>
        <pt x="91" y="573" on="0"/>
        <pt x="106" y="538" on="0"/>
        <pt x="133" y="511" on="0"/>
        <pt x="169" y="496" on="0"/>
      </contour>
      <contour>
        <pt x="189" y="633" on="1"/>
        <pt x="205" y="633" on="0"/>
        <pt x="229" y="610" on="0"/>
        <pt x="229" y="593" on="1"/>
        <pt x="229" y="579" on="0"/>
        <pt x="205" y="555" on="0"/>
        <pt x="189" y="555" on="1"/>
        <pt x="174" y="555" on="0"/>
        <pt x="151" y="579" on="0"/>
        <pt x="151" y="593" on="1"/>
        <pt x="151" y="610" on="0"/>
        <pt x="174" y="633" on="0"/>
      </contour>
      <contour>
        <pt x="355" y="574" on="1"/>
        <pt x="355" y="642" on="0"/>
        <pt x="460" y="724" on="0"/>
        <pt x="551" y="724" on="1"/>
        <pt x="559" y="724" on="1"/>
        <pt x="650" y="724" on="0"/>
        <pt x="749" y="642" on="0"/>
        <pt x="749" y="574" on="1"/>
        <pt x="749" y="524" on="1"/>
        <pt x="681" y="524" on="1"/>
        <pt x="681" y="567" on="1"/>
        <pt x="681" y="593" on="0"/>
        <pt x="668" y="627" on="0"/>
        <pt x="638" y="648" on="0"/>
        <pt x="590" y="656" on="0"/>
        <pt x="555" y="656" on="1"/>
        <pt x="481" y="656" on="0"/>
        <pt x="423" y="607" on="0"/>
        <pt x="423" y="562" on="1"/>
        <pt x="423" y="158" on="1"/>
        <pt x="423" y="108" on="0"/>
        <pt x="481" y="58" on="0"/>
        <pt x="555" y="58" on="1"/>
        <pt x="626" y="58" on="0"/>
        <pt x="681" y="101" on="0"/>
        <pt x="681" y="152" on="1"/>
        <pt x="681" y="200" on="1"/>
        <pt x="749" y="200" on="1"/>
        <pt x="749" y="144" on="1"/>
        <pt x="749" y="67" on="0"/>
        <pt x="645" y="-10" on="0"/>
        <pt x="559" y="-10" on="1"/>
        <pt x="551" y="-10" on="1"/>
        <pt x="462" y="-9" on="0"/>
        <pt x="355" y="72" on="0"/>
        <pt x="355" y="144" on="1"/>
      </contour>
    </TTGlyph>
    <TTGlyph name="uni2109" xMin="91" yMin="0" xMax="736" yMax="714">
      <contour>
        <pt x="442" y="0" on="1"/>
        <pt x="371" y="0" on="1"/>
        <pt x="371" y="714" on="1"/>
        <pt x="736" y="714" on="1"/>
        <pt x="736" y="646" on="1"/>
        <pt x="442" y="646" on="1"/>
        <pt x="442" y="379" on="1"/>
        <pt x="690" y="379" on="1"/>
        <pt x="690" y="311" on="1"/>
        <pt x="442" y="311" on="1"/>
      </contour>
      <contour>
        <pt x="189" y="508" on="1"/>
        <pt x="210" y="508" on="0"/>
        <pt x="246" y="523" on="0"/>
        <pt x="273" y="550" on="0"/>
        <pt x="288" y="585" on="0"/>
        <pt x="288" y="605" on="1"/>
        <pt x="288" y="625" on="0"/>
        <pt x="273" y="662" on="0"/>
        <pt x="246" y="689" on="0"/>
        <pt x="210" y="705" on="0"/>
        <pt x="189" y="705" on="1"/>
        <pt x="169" y="705" on="0"/>
        <pt x="133" y="689" on="0"/>
        <pt x="106" y="662" on="0"/>
        <pt x="91" y="625" on="0"/>
        <pt x="91" y="605" on="1"/>
        <pt x="91" y="585" on="0"/>
        <pt x="106" y="550" on="0"/>
        <pt x="133" y="523" on="0"/>
        <pt x="169" y="508" on="0"/>
      </contour>
      <contour>
        <pt x="189" y="645" on="1"/>
        <pt x="205" y="645" on="0"/>
        <pt x="229" y="622" on="0"/>
        <pt x="229" y="605" on="1"/>
        <pt x="229" y="591" on="0"/>
        <pt x="205" y="567" on="0"/>
        <pt x="189" y="567" on="1"/>
        <pt x="174" y="567" on="0"/>
        <pt x="151" y="591" on="0"/>
        <pt x="151" y="605" on="1"/>
        <pt x="151" y="622" on="0"/>
        <pt x="174" y="645" on="0"/>
      </contour>
    </TTGlyph>
    <TTGlyph name="v" xMin="14" yMin="0" xMax="387" yMax="536">
      <contour>
        <pt x="233" y="0" on="1"/>
        <pt x="170" y="0" on="1"/>
        <pt x="14" y="536" on="1"/>
        <pt x="82" y="536" on="1"/>
        <pt x="202" y="119" on="1"/>
        <pt x="203" y="119" on="1"/>
        <pt x="315" y="536" on="1"/>
        <pt x="387" y="536" on="1"/>
      </contour>
    </TTGlyph>
    <TTGlyph name="w" xMin="15" yMin="0" xMax="642" yMax="536">
      <contour>
        <pt x="642" y="536" on="1"/>
        <pt x="506" y="0" on="1"/>
        <pt x="448" y="0" on="1"/>
        <pt x="326" y="419" on="1"/>
        <pt x="325" y="419" on="1"/>
        <pt x="207" y="0" on="1"/>
        <pt x="152" y="0" on="1"/>
        <pt x="15" y="536" on="1"/>
        <pt x="85" y="536" on="1"/>
        <pt x="182" y="120" on="1"/>
        <pt x="183" y="120" on="1"/>
        <pt x="299" y="536" on="1"/>
        <pt x="354" y="536" on="1"/>
        <pt x="472" y="119" on="1"/>
        <pt x="473" y="119" on="1"/>
        <pt x="571" y="536" on="1"/>
      </contour>
    </TTGlyph>
    <TTGlyph name="x" xMin="33" yMin="0" xMax="392" yMax="536">
      <contour>
        <pt x="33" y="536" on="1"/>
        <pt x="104" y="536" on="1"/>
        <pt x="212" y="340" on="1"/>
        <pt x="321" y="536" on="1"/>
        <pt x="392" y="536" on="1"/>
        <pt x="248" y="275" on="1"/>
        <pt x="392" y="0" on="1"/>
        <pt x="315" y="0" on="1"/>
        <pt x="212" y="208" on="1"/>
        <pt x="110" y="0" on="1"/>
        <pt x="33" y="0" on="1"/>
        <pt x="177" y="275" on="1"/>
      </contour>
    </TTGlyph>
    <TTGlyph name="y" xMin="11" yMin="-190" xMax="420" yMax="536">
      <contour>
        <pt x="347" y="536" on="1"/>
        <pt x="420" y="536" on="1"/>
        <pt x="176" y="-190" on="1"/>
        <pt x="104" y="-190" on="1"/>
        <pt x="172" y="13" on="1"/>
        <pt x="11" y="536" on="1"/>
        <pt x="89" y="536" on="1"/>
        <pt x="206" y="114" on="1"/>
      </contour>
    </TTGlyph>
    <TTGlyph name="z" xMin="50" yMin="0" xMax="365" yMax="536">
      <contour>
        <pt x="285" y="478" on="1"/>
        <pt x="61" y="478" on="1"/>
        <pt x="61" y="536" on="1"/>
        <pt x="365" y="536" on="1"/>
        <pt x="365" y="486" on="1"/>
        <pt x="132" y="58" on="1"/>
        <pt x="365" y="58" on="1"/>
        <pt x="365" y="0" on="1"/>
        <pt x="50" y="0" on="1"/>
        <pt x="50" y="41" on="1"/>
      </contour>
    </TTGlyph>
    <TTGlyph name="zero" xMin="77" yMin="-10" xMax="403" yMax="725">
      <contour>
        <pt x="403" y="588" on="1"/>
        <pt x="403" y="126" on="1"/>
        <pt x="403" y="55" on="0"/>
        <pt x="313" y="-10" on="0"/>
        <pt x="241" y="-10" on="1"/>
        <pt x="167" y="-10" on="0"/>
        <pt x="77" y="55" on="0"/>
        <pt x="77" y="126" on="1"/>
        <pt x="77" y="588" on="1"/>
        <pt x="77" y="659" on="0"/>
        <pt x="167" y="725" on="0"/>
        <pt x="241" y="725" on="1"/>
        <pt x="313" y="725" on="0"/>
        <pt x="403" y="659" on="0"/>
      </contour>
      <contour>
        <pt x="335" y="154" on="1"/>
        <pt x="335" y="563" on="1"/>
        <pt x="335" y="617" on="0"/>
        <pt x="294" y="657" on="0"/>
        <pt x="241" y="657" on="1"/>
        <pt x="187" y="657" on="0"/>
        <pt x="145" y="617" on="0"/>
        <pt x="145" y="563" on="1"/>
        <pt x="145" y="154" on="1"/>
        <pt x="145" y="126" on="0"/>
        <pt x="155" y="89" on="0"/>
        <pt x="177" y="67" on="0"/>
        <pt x="214" y="58" on="0"/>
        <pt x="241" y="58" on="1"/>
        <pt x="267" y="58" on="0"/>
        <pt x="303" y="67" on="0"/>
        <pt x="325" y="89" on="0"/>
        <pt x="335" y="126" on="0"/>
      </contour>
    </TTGlyph>
</ttFont>
